<?xml version="1.0" encoding="UTF-8" standalone="no"?>
<!-- Created with Inkscape (http://www.inkscape.org/) -->

<svg
   width="499.99997"
   height="500.00003"
   viewBox="0 0 132.29166 132.29167"
   version="1.1"
   id="svg1"
   inkscape:version="1.3 (0e150ed6c4, 2023-07-21)"
   sodipodi:docname="CirclesSoft Icons.svg"
   xmlns:inkscape="http://www.inkscape.org/namespaces/inkscape"
   xmlns:sodipodi="http://sodipodi.sourceforge.net/DTD/sodipodi-0.dtd"
   xmlns="http://www.w3.org/2000/svg"
   xmlns:svg="http://www.w3.org/2000/svg">
  <sodipodi:namedview
     id="namedview1"
     pagecolor="#505050"
     bordercolor="#eeeeee"
     borderopacity="1"
     inkscape:showpageshadow="0"
     inkscape:pageopacity="0"
     inkscape:pagecheckerboard="0"
     inkscape:deskcolor="#505050"
     inkscape:document-units="px"
     showgrid="true"
     inkscape:zoom="22.627417"
     inkscape:cx="1514.1366"
     inkscape:cy="654.29474"
     inkscape:window-width="1600"
     inkscape:window-height="837"
     inkscape:window-x="-8"
     inkscape:window-y="-8"
     inkscape:window-maximized="1"
     inkscape:current-layer="layer1"
     showguides="true" />
  <defs
     id="defs1" />
  <g
     inkscape:label="Layer 1"
     inkscape:groupmode="layer"
     id="layer1"
     transform="translate(-145.06262,-73.743148)">
    <g
       id="g10"
       transform="matrix(55.555557,0,0,55.555557,-20845.214,-8789.7979)"
       style="stroke-width:0.018">
      <circle
         style="fill:#1a1a1a;fill-rule:evenodd;stroke-width:0.00952501;stroke-linecap:round;stroke-linejoin:round;stroke-miterlimit:7.3;stroke-opacity:0.992157;paint-order:stroke fill markers"
         id="circle5"
         cx="379.01559"
         cy="160.73436"
         r="1.190625" />
      <g
         id="g9"
         transform="translate(-2.5517578e-5)"
         style="stroke-width:0.018">
        <path
           style="color:#000000;fill:#ffffff;fill-opacity:0.992157;fill-rule:evenodd;stroke-width:0.018;stroke-linecap:round;stroke-linejoin:round;stroke-miterlimit:7.3;-inkscape-stroke:none;paint-order:stroke fill markers"
           d="m 378.875,160.17969 a 0.02645835,0.02645835 0 0 0 -0.0156,0.0137 l -0.24804,0.49609 -0.23828,-0.23828 a 0.02645835,0.02645835 0 0 0 -0.0371,0 0.02645835,0.02645835 0 0 0 0,0.0371 l 0.26367,0.26563 a 0.02646099,0.02646099 0 0 0 0.043,-0.008 l 0.26367,-0.52929 a 0.02645835,0.02645835 0 0 0 -0.0117,-0.0352 0.02645835,0.02645835 0 0 0 -0.0195,-0.002 z"
           id="path5" />
        <path
           style="color:#000000;fill:#ffffff;fill-opacity:0.992157;fill-rule:evenodd;stroke-width:0.018;stroke-linecap:round;stroke-linejoin:round;stroke-miterlimit:7.3;-inkscape-stroke:none;paint-order:stroke fill markers"
           d="m 378.88281,160.44336 a 0.02645835,0.02645835 0 0 0 -0.0254,0.0273 0.02645835,0.02645835 0 0 0 0.0254,0.0254 h 0.79492 a 0.02645835,0.02645835 0 0 0 0.0254,-0.0254 0.02645835,0.02645835 0 0 0 -0.0254,-0.0273 z"
           id="path7" />
        <path
           style="color:#000000;fill:#ffffff;fill-opacity:0.992157;fill-rule:evenodd;stroke-width:0.018;stroke-linecap:round;stroke-linejoin:round;stroke-miterlimit:7.3;-inkscape-stroke:none;paint-order:stroke fill markers"
           d="m 378.875,160.70898 a 0.02645835,0.02645835 0 0 0 -0.0156,0.0137 l -0.24804,0.49609 -0.23828,-0.23828 a 0.02645835,0.02645835 0 0 0 -0.0371,0 0.02645835,0.02645835 0 0 0 0,0.0371 l 0.26367,0.26562 a 0.02646099,0.02646099 0 0 0 0.043,-0.008 l 0.26367,-0.5293 a 0.02645835,0.02645835 0 0 0 -0.0117,-0.0352 0.02645835,0.02645835 0 0 0 -0.0195,-0.002 z"
           id="path8" />
        <path
           style="color:#000000;fill:#ffffff;fill-opacity:0.992157;fill-rule:evenodd;stroke-width:0.018;stroke-linecap:round;stroke-linejoin:round;stroke-miterlimit:7.3;-inkscape-stroke:none;paint-order:stroke fill markers"
           d="m 378.88281,160.97266 a 0.02645835,0.02645835 0 0 0 -0.0254,0.0254 0.02645835,0.02645835 0 0 0 0.0254,0.0273 h 0.79492 a 0.02645835,0.02645835 0 0 0 0.0254,-0.0273 0.02645835,0.02645835 0 0 0 -0.0254,-0.0254 z"
           id="path9" />
      </g>
    </g>
  </g>
</svg>
