<?xml version="1.0" encoding="UTF-8" standalone="no"?>
<!-- Created with Inkscape (http://www.inkscape.org/) -->

<svg
   width="499.99997"
   height="499.99997"
   viewBox="0 0 132.29166 132.29166"
   version="1.1"
   id="svg1"
   inkscape:version="1.3 (0e150ed6c4, 2023-07-21)"
   sodipodi:docname="CirclesSoft Icons.svg"
   xmlns:inkscape="http://www.inkscape.org/namespaces/inkscape"
   xmlns:sodipodi="http://sodipodi.sourceforge.net/DTD/sodipodi-0.dtd"
   xmlns="http://www.w3.org/2000/svg"
   xmlns:svg="http://www.w3.org/2000/svg">
  <sodipodi:namedview
     id="namedview1"
     pagecolor="#505050"
     bordercolor="#eeeeee"
     borderopacity="1"
     inkscape:showpageshadow="0"
     inkscape:pageopacity="0"
     inkscape:pagecheckerboard="0"
     inkscape:deskcolor="#505050"
     inkscape:document-units="px"
     showgrid="true"
     inkscape:zoom="22.627417"
     inkscape:cx="1514.1366"
     inkscape:cy="654.29474"
     inkscape:window-width="1600"
     inkscape:window-height="837"
     inkscape:window-x="-8"
     inkscape:window-y="-8"
     inkscape:window-maximized="1"
     inkscape:current-layer="layer1"
     showguides="true" />
  <defs
     id="defs1" />
  <g
     inkscape:label="Layer 1"
     inkscape:groupmode="layer"
     id="layer1"
     transform="translate(-192.76662,-71.170402)">
    <g
       id="g10"
       transform="matrix(55.555557,0,0,55.555557,-20797.51,-9453.829)"
       style="stroke-width:0.018">
      <circle
         style="fill:#1a1a1a;fill-rule:evenodd;stroke-width:0.00952501;stroke-linecap:round;stroke-linejoin:round;stroke-miterlimit:7.3;stroke-opacity:0.992157;paint-order:stroke fill markers"
         id="circle10"
         cx="379.01559"
         cy="172.64061"
         r="1.190625" />
      <path
         id="path10"
         style="fill:#f9f9f9;fill-rule:evenodd;stroke-width:0.00952499;stroke-linecap:round;stroke-linejoin:round;stroke-miterlimit:7.3;stroke-opacity:0.992157;paint-order:stroke fill markers"
         d="m 378.99547,171.95333 c -0.23387,0.007 -0.45411,0.13309 -0.57568,0.34365 -0.15561,0.26952 -0.11051,0.60985 0.10956,0.82992 0.22007,0.22007 0.5604,0.26516 0.82992,0.10955 0.26953,-0.15561 0.40094,-0.47297 0.32039,-0.77359 a 0.02645835,0.02645835 0 0 0 -0.031,-0.0196 0.02645835,0.02645835 0 0 0 -0.0196,0.0336 c 0.0744,0.27773 -0.046,0.57091 -0.29507,0.71468 -0.249,0.14376 -0.56409,0.10152 -0.7674,-0.1018 -0.20332,-0.20331 -0.24556,-0.51839 -0.1018,-0.76739 0.14377,-0.24901 0.43747,-0.36949 0.7152,-0.29508 a 0.02645835,0.02645835 0 0 0 0.0331,-0.0191 0.02645835,0.02645835 0 0 0 -0.0196,-0.0315 c -0.0658,-0.0176 -0.13244,-0.0251 -0.19792,-0.0233 z m 0.39119,0.15813 a 0.02645835,0.02645835 0 0 0 -0.0274,0.0274 0.02645835,0.02645835 0 0 0 0.0274,0.0253 h 0.26355 a 0.02645835,0.02645835 0 0 0 0.0274,-0.0253 0.02645835,0.02645835 0 0 0 -0.0274,-0.0274 z m -0.37104,0.13229 a 0.1984375,0.1984375 0 0 0 -0.19844,0.19844 0.1984375,0.1984375 0 0 0 0.19844,0.19843 0.1984375,0.1984375 0 0 0 0.19844,-0.19843 0.1984375,0.1984375 0 0 0 -0.19844,-0.19844 z m 0,0.39687 a 0.39687499,0.39687499 0 0 0 -0.19844,0.0532 0.39687499,0.39687499 0 0 0 -0.19843,0.34365 h 0.79375 a 0.39687499,0.39687499 0 0 0 -0.19844,-0.34365 0.39687499,0.39687499 0 0 0 -0.19844,-0.0532 z" />
    </g>
  </g>
</svg>
