<?xml version="1.0" encoding="UTF-8" standalone="no"?>
<!-- Created with Inkscape (http://www.inkscape.org/) -->

<svg
   width="499.99997"
   height="500.00003"
   viewBox="0 0 132.29166 132.29167"
   version="1.1"
   id="svg1"
   inkscape:version="1.3 (0e150ed6c4, 2023-07-21)"
   sodipodi:docname="CirclesSoft Icons.svg"
   xmlns:inkscape="http://www.inkscape.org/namespaces/inkscape"
   xmlns:sodipodi="http://sodipodi.sourceforge.net/DTD/sodipodi-0.dtd"
   xmlns="http://www.w3.org/2000/svg"
   xmlns:svg="http://www.w3.org/2000/svg">
  <sodipodi:namedview
     id="namedview1"
     pagecolor="#505050"
     bordercolor="#eeeeee"
     borderopacity="1"
     inkscape:showpageshadow="0"
     inkscape:pageopacity="0"
     inkscape:pagecheckerboard="0"
     inkscape:deskcolor="#505050"
     inkscape:document-units="px"
     showgrid="true"
     inkscape:zoom="22.627417"
     inkscape:cx="1514.1366"
     inkscape:cy="654.29474"
     inkscape:window-width="1600"
     inkscape:window-height="837"
     inkscape:window-x="-8"
     inkscape:window-y="-8"
     inkscape:window-maximized="1"
     inkscape:current-layer="layer1"
     showguides="true" />
  <defs
     id="defs1" />
  <g
     inkscape:label="Layer 1"
     inkscape:groupmode="layer"
     id="layer1"
     transform="translate(-229.78194,-92.156905)">
    <g
       id="g10"
       transform="matrix(55.555557,0,0,55.555557,-20907.486,-9432.8425)"
       style="stroke-width:0.018">
      <circle
         style="fill:#1a1a1a;fill-rule:evenodd;stroke-width:0.00952501;stroke-linecap:round;stroke-linejoin:round;stroke-miterlimit:7.3;stroke-opacity:0.992157;paint-order:stroke fill markers"
         id="circle10"
         cx="381.66144"
         cy="172.64061"
         r="1.190625" />
      <path
         id="path10"
         style="font-weight:600;font-size:1.23417px;line-height:1.05;font-family:Inter;-inkscape-font-specification:'Inter Semi-Bold';letter-spacing:0.115704px;word-spacing:0px;fill:#f9f9f9;fill-rule:evenodd;stroke-width:0.000952501;stroke-linecap:round;stroke-linejoin:round;stroke-miterlimit:7.3;stroke-opacity:0.992157;paint-order:stroke fill markers"
         d="m 383.14324,171.32614 v 0.1014 c -0.0468,0.004 -0.0899,0.0146 -0.12866,0.0319 -0.0497,0.0219 -0.0888,0.0529 -0.11777,0.0926 -0.0287,0.0397 -0.0431,0.0861 -0.0431,0.13897 0,0.0643 0.0217,0.11555 0.0643,0.15442 0.043,0.0385 0.10092,0.0675 0.17484,0.0865 l 0.0503,0.0129 v 0.26405 c -0.0206,-0.002 -0.0402,-0.007 -0.0581,-0.0134 -0.0272,-0.0103 -0.049,-0.0261 -0.0659,-0.0468 -0.0166,-0.0207 -0.0264,-0.0465 -0.0291,-0.0777 h -0.15979 c 0.002,0.0596 0.0176,0.10986 0.0462,0.15133 0.0289,0.0415 0.0692,0.0731 0.12037,0.0947 0.0425,0.0178 0.0913,0.0283 0.1463,0.0314 v 0.0999 h 0.0721 v -0.0999 c 0.0562,-0.003 0.10513,-0.0136 0.14682,-0.0319 0.0509,-0.0225 0.0899,-0.054 0.11674,-0.0937 0.0269,-0.04 0.0405,-0.0864 0.0405,-0.13897 0,-0.0389 -0.007,-0.0725 -0.0218,-0.1014 -0.0146,-0.0289 -0.0345,-0.0537 -0.0597,-0.0741 -0.0249,-0.0204 -0.053,-0.0375 -0.0846,-0.051 -0.0313,-0.0135 -0.0642,-0.024 -0.0981,-0.0319 l -0.04,-0.01 V 171.566 h 5.2e-4 c 0.0328,0.004 0.0605,0.0139 0.083,0.0299 0.0305,0.0213 0.0479,0.0513 0.0519,0.0896 l 0.15616,-5.1e-4 c -8.6e-4,-0.0505 -0.0151,-0.095 -0.0425,-0.13383 -0.0275,-0.0391 -0.0654,-0.0697 -0.11362,-0.0916 -0.0398,-0.0184 -0.0848,-0.0293 -0.13541,-0.0324 v -0.10089 z m 0,0.24038 v 0.2306 c -0.009,-0.003 -0.0175,-0.005 -0.0265,-0.009 -0.0181,-0.006 -0.0349,-0.0143 -0.0498,-0.0237 -0.0149,-0.01 -0.0265,-0.0218 -0.0353,-0.0355 -0.008,-0.0137 -0.013,-0.0297 -0.013,-0.0484 2.7e-4,-0.0225 0.007,-0.0427 0.0197,-0.0602 0.0129,-0.0175 0.0318,-0.0315 0.056,-0.0417 0.0145,-0.006 0.0308,-0.01 0.0488,-0.0123 z m 0.0721,0.39685 c 0.0238,0.007 0.0456,0.0144 0.0643,0.0226 0.0242,0.0103 0.0426,0.0231 0.056,0.0386 0.0135,0.0152 0.0205,0.0348 0.0208,0.0582 -2.7e-4,0.0257 -0.008,0.0482 -0.0233,0.0674 -0.0152,0.019 -0.0359,0.034 -0.0628,0.0448 -0.0165,0.007 -0.0351,0.0104 -0.055,0.0129 z m -0.50532,0.52244 v 0.13177 h 0.92971 v -0.13177 z"
         transform="scale(0.99605027,1.0039654)" />
    </g>
  </g>
</svg>
