<?xml version="1.0" encoding="UTF-8" standalone="no"?>
<!-- Created with Inkscape (http://www.inkscape.org/) -->

<svg
   width="499.99997"
   height="499.99997"
   viewBox="0 0 132.29166 132.29166"
   version="1.1"
   id="svg1"
   inkscape:version="1.3 (0e150ed6c4, 2023-07-21)"
   sodipodi:docname="CirclesSoft Icons.svg"
   xmlns:inkscape="http://www.inkscape.org/namespaces/inkscape"
   xmlns:sodipodi="http://sodipodi.sourceforge.net/DTD/sodipodi-0.dtd"
   xmlns="http://www.w3.org/2000/svg"
   xmlns:svg="http://www.w3.org/2000/svg">
  <sodipodi:namedview
     id="namedview1"
     pagecolor="#505050"
     bordercolor="#eeeeee"
     borderopacity="1"
     inkscape:showpageshadow="0"
     inkscape:pageopacity="0"
     inkscape:pagecheckerboard="0"
     inkscape:deskcolor="#505050"
     inkscape:document-units="px"
     showgrid="true"
     inkscape:zoom="22.627417"
     inkscape:cx="1514.1366"
     inkscape:cy="654.29474"
     inkscape:window-width="1600"
     inkscape:window-height="837"
     inkscape:window-x="-8"
     inkscape:window-y="-8"
     inkscape:window-maximized="1"
     inkscape:current-layer="layer1"
     showguides="true" />
  <defs
     id="defs1" />
  <g
     inkscape:label="Layer 1"
     inkscape:groupmode="layer"
     id="layer1"
     transform="translate(-221.45626,-87.607642)">
    <g
       id="g10"
       transform="matrix(55.555557,0,0,55.555557,-21062.803,-9290.4013)"
       style="stroke-width:0.018">
      <circle
         style="fill:#1a1a1a;fill-rule:evenodd;stroke-width:0.00952501;stroke-linecap:round;stroke-linejoin:round;stroke-miterlimit:7.3;stroke-opacity:0.992157;paint-order:stroke fill markers"
         id="circle10"
         cx="384.30728"
         cy="169.99478"
         r="1.190625" />
      <path
         id="path10"
         style="fill:#f9f9f9;fill-rule:evenodd;stroke-width:0.00952499;stroke-linecap:round;stroke-linejoin:round;stroke-miterlimit:7.3;stroke-opacity:0.992157;paint-order:stroke fill markers"
         d="m 384.31452,169.30646 c -0.24421,-0.003 -0.47715,0.12519 -0.60358,0.34416 -0.15561,0.26953 -0.11051,0.60986 0.10956,0.82993 0.22007,0.22007 0.56039,0.26466 0.82992,0.10904 0.26953,-0.15561 0.40301,-0.47246 0.32246,-0.77308 a 0.02645835,0.02645835 0 0 0 -0.0336,-0.0176 0.02645835,0.02645835 0 0 0 -0.0191,0.031 c 0.0744,0.27773 -0.046,0.57093 -0.29507,0.71469 -0.24901,0.14377 -0.56408,0.10202 -0.7674,-0.10129 -0.20331,-0.20331 -0.2435,-0.51683 -0.0997,-0.76584 0.14377,-0.249 0.43489,-0.37105 0.71262,-0.29663 a 0.02645835,0.02645835 0 0 0 0.0336,-0.0176 0.02645835,0.02645835 0 0 0 -0.0196,-0.0331 c -0.0564,-0.0151 -0.11366,-0.0231 -0.17002,-0.0238 z m 0.4961,0.0274 a 0.02645835,0.02645835 0 0 0 -0.0274,0.0253 v 0.10542 h -0.10542 a 0.02645835,0.02645835 0 0 0 -0.0274,0.0274 0.02645835,0.02645835 0 0 0 0.0274,0.0253 h 0.10542 v 0.10749 a 0.02645835,0.02645835 0 0 0 0.0274,0.0258 0.02645835,0.02645835 0 0 0 0.0253,-0.0258 v -0.10749 h 0.10542 a 0.02645835,0.02645835 0 0 0 0.0274,-0.0253 0.02645835,0.02645835 0 0 0 -0.0274,-0.0274 h -0.10542 v -0.10542 a 0.02645835,0.02645835 0 0 0 -0.0253,-0.0253 z m -0.50333,0.26406 a 0.1984375,0.1984375 0 0 0 -0.19844,0.19844 0.1984375,0.1984375 0 0 0 0.19844,0.19844 0.1984375,0.1984375 0 0 0 0.19844,-0.19844 0.1984375,0.1984375 0 0 0 -0.19844,-0.19844 z m 0,0.39688 a 0.39687499,0.39687499 0 0 0 -0.19844,0.0532 0.39687499,0.39687499 0 0 0 -0.19844,0.34364 h 0.79375 a 0.39687499,0.39687499 0 0 0 -0.19843,-0.34364 0.39687499,0.39687499 0 0 0 -0.19844,-0.0532 z" />
    </g>
  </g>
</svg>
