<?xml version="1.0" encoding="UTF-8" standalone="no"?>
<!-- Created with Inkscape (http://www.inkscape.org/) -->

<svg
   width="500.00009"
   height="500.00003"
   viewBox="0 0 132.29169 132.29167"
   version="1.1"
   id="svg1"
   inkscape:version="1.3 (0e150ed6c4, 2023-07-21)"
   sodipodi:docname="CirclesSoft Icons.svg"
   xmlns:inkscape="http://www.inkscape.org/namespaces/inkscape"
   xmlns:sodipodi="http://sodipodi.sourceforge.net/DTD/sodipodi-0.dtd"
   xmlns="http://www.w3.org/2000/svg"
   xmlns:svg="http://www.w3.org/2000/svg">
  <sodipodi:namedview
     id="namedview1"
     pagecolor="#505050"
     bordercolor="#eeeeee"
     borderopacity="1"
     inkscape:showpageshadow="0"
     inkscape:pageopacity="0"
     inkscape:pagecheckerboard="0"
     inkscape:deskcolor="#505050"
     inkscape:document-units="px"
     showgrid="true"
     inkscape:zoom="22.627417"
     inkscape:cx="1514.1366"
     inkscape:cy="654.29474"
     inkscape:window-width="1600"
     inkscape:window-height="837"
     inkscape:window-x="-8"
     inkscape:window-y="-8"
     inkscape:window-maximized="1"
     inkscape:current-layer="layer1"
     showguides="true" />
  <defs
     id="defs1" />
  <g
     inkscape:label="Layer 1"
     inkscape:groupmode="layer"
     id="layer1"
     transform="translate(-176.41063,-82.946906)">
    <g
       id="g10"
       transform="matrix(55.555557,0,0,55.555557,-20813.866,-8927.5863)"
       style="stroke-width:0.018">
      <circle
         style="fill:#1a1a1a;fill-rule:evenodd;stroke-width:0.00952501;stroke-linecap:round;stroke-linejoin:round;stroke-miterlimit:7.3;stroke-opacity:0.992157;paint-order:stroke fill markers"
         id="circle10"
         cx="379.01559"
         cy="163.38022"
         r="1.190625" />
      <path
         id="path10"
         style="color:#000000;fill:#f9f9f9;fill-opacity:0.992157;fill-rule:evenodd;stroke-width:0.018;stroke-linecap:square;stroke-miterlimit:7.3;-inkscape-stroke:none;paint-order:stroke fill markers"
         d="m 379.0412,162.64475 -0.0215,0.0663 -0.11341,0.34964 h -0.4375 l 0.35368,0.25775 -0.13493,0.41778 0.35368,-0.25775 0.35547,0.25775 -0.13492,-0.41778 0.35368,-0.25775 h -0.43751 z m 0,0.14838 0.10355,0.31423 h 0.32992 l -0.26761,0.19544 0.10175,0.31424 -0.20978,-0.15286 v -0.21562 c 1.2e-4,-0.0318 -0.0256,-0.0579 -0.0574,-0.0578 -0.0318,-1.2e-4 -0.0575,0.026 -0.0574,0.0578 v 0.21517 l -0.21068,0.15331 0.10131,-0.31424 -0.26762,-0.19544 h 0.33217 z m 4.5e-4,0.2824 a 0.05737768,0.05737768 0 0 0 -0.0574,0.0574 0.05737768,0.05737768 0 0 0 0.0574,0.0574 0.05737768,0.05737768 0 0 0 0.0574,-0.0574 0.05737768,0.05737768 0 0 0 -0.0574,-0.0574 z"
         transform="matrix(1.1528146,0,0,1.1528146,-57.949126,-24.747941)" />
    </g>
  </g>
</svg>
