<?xml version="1.0" encoding="UTF-8" standalone="no"?>
<!-- Created with Inkscape (http://www.inkscape.org/) -->

<svg
   width="500.00009"
   height="500.00003"
   viewBox="0 0 132.29169 132.29167"
   version="1.1"
   id="svg1"
   inkscape:version="1.3 (0e150ed6c4, 2023-07-21)"
   sodipodi:docname="CirclesSoft Icons.svg"
   xmlns:inkscape="http://www.inkscape.org/namespaces/inkscape"
   xmlns:sodipodi="http://sodipodi.sourceforge.net/DTD/sodipodi-0.dtd"
   xmlns="http://www.w3.org/2000/svg"
   xmlns:svg="http://www.w3.org/2000/svg">
  <sodipodi:namedview
     id="namedview1"
     pagecolor="#505050"
     bordercolor="#eeeeee"
     borderopacity="1"
     inkscape:showpageshadow="0"
     inkscape:pageopacity="0"
     inkscape:pagecheckerboard="0"
     inkscape:deskcolor="#505050"
     inkscape:document-units="px"
     showgrid="true"
     inkscape:zoom="22.627417"
     inkscape:cx="1514.1366"
     inkscape:cy="654.29474"
     inkscape:window-width="1600"
     inkscape:window-height="837"
     inkscape:window-x="-8"
     inkscape:window-y="-8"
     inkscape:window-maximized="1"
     inkscape:current-layer="layer1"
     showguides="true" />
  <defs
     id="defs1" />
  <g
     inkscape:label="Layer 1"
     inkscape:groupmode="layer"
     id="layer1"
     transform="translate(-142.67693,-60.087753)">
    <g
       id="g10"
       transform="matrix(55.555557,0,0,55.555557,-20994.591,-8803.4533)"
       style="stroke-width:0.018">
      <circle
         style="fill:#1a1a1a;fill-rule:evenodd;stroke-width:0.00952501;stroke-linecap:round;stroke-linejoin:round;stroke-miterlimit:7.3;stroke-opacity:0.992157;paint-order:stroke fill markers"
         id="circle10"
         cx="381.66144"
         cy="160.73436"
         r="1.190625" />
      <path
         id="path10"
         style="color:#000000;fill:#ffffff;fill-opacity:0.992157;fill-rule:evenodd;stroke-width:0.018;stroke-linecap:round;stroke-linejoin:round;stroke-miterlimit:7.3;-inkscape-stroke:none;paint-order:stroke fill markers"
         d="m 381,160.17989 a 0.02646099,0.02646099 0 0 0 -0.0274,0.0253 v 0.79271 A 0.02646099,0.02646099 0 0 0 381,161.0253 h 0.23822 v 0.23823 a 0.02645835,0.02645835 0 0 0 0.0253,0.0253 0.02645835,0.02645835 0 0 0 0.0274,-0.0253 v -0.23823 h 0.74053 v 0.23823 a 0.02645835,0.02645835 0 0 0 0.0274,0.0253 0.02645835,0.02645835 0 0 0 0.0253,-0.0253 v -0.23823 h 0.23823 a 0.02646099,0.02646099 0 0 0 0.0274,-0.0274 v -0.79271 a 0.02646099,0.02646099 0 0 0 -0.0274,-0.0253 z m 0.0274,0.0527 h 1.26969 v 0.74 h -1.03352 -0.23617 z m 0.23617,0.21084 a 0.02645835,0.02645835 0 0 0 -0.0253,0.0274 0.02645835,0.02645835 0 0 0 0.0253,0.0253 h 0.7953 a 0.02645835,0.02645835 0 0 0 0.0253,-0.0253 0.02645835,0.02645835 0 0 0 -0.0253,-0.0274 z m 0,0.26354 a 0.02645835,0.02645835 0 0 0 -0.0253,0.0274 0.02645835,0.02645835 0 0 0 0.0253,0.0274 h 0.13074 a 0.02645835,0.02645835 0 0 0 0.0274,-0.0274 0.02645835,0.02645835 0 0 0 -0.0274,-0.0274 z m 0.26561,0 a 0.02645835,0.02645835 0 0 0 -0.0274,0.0274 0.02645835,0.02645835 0 0 0 0.0274,0.0274 h 0.52969 a 0.02645835,0.02645835 0 0 0 0.0253,-0.0274 0.02645835,0.02645835 0 0 0 -0.0253,-0.0274 z" />
    </g>
  </g>
</svg>
