<?xml version="1.0" encoding="UTF-8" standalone="no"?>
<!-- Created with Inkscape (http://www.inkscape.org/) -->

<svg
   width="500.00009"
   height="500.00003"
   viewBox="0 0 132.29169 132.29167"
   version="1.1"
   id="svg1"
   inkscape:version="1.3 (0e150ed6c4, 2023-07-21)"
   sodipodi:docname="CirclesSoft Icons.svg"
   xmlns:inkscape="http://www.inkscape.org/namespaces/inkscape"
   xmlns:sodipodi="http://sodipodi.sourceforge.net/DTD/sodipodi-0.dtd"
   xmlns="http://www.w3.org/2000/svg"
   xmlns:svg="http://www.w3.org/2000/svg">
  <sodipodi:namedview
     id="namedview1"
     pagecolor="#505050"
     bordercolor="#eeeeee"
     borderopacity="1"
     inkscape:showpageshadow="0"
     inkscape:pageopacity="0"
     inkscape:pagecheckerboard="0"
     inkscape:deskcolor="#505050"
     inkscape:document-units="px"
     showgrid="true"
     inkscape:zoom="22.627417"
     inkscape:cx="1514.1366"
     inkscape:cy="654.29474"
     inkscape:window-width="1600"
     inkscape:window-height="837"
     inkscape:window-x="-8"
     inkscape:window-y="-8"
     inkscape:window-maximized="1"
     inkscape:current-layer="layer1"
     showguides="true" />
  <defs
     id="defs1" />
  <g
     inkscape:label="Layer 1"
     inkscape:groupmode="layer"
     id="layer1"
     transform="translate(-199.04798,-112.3299)">
    <g
       id="g10"
       transform="matrix(55.555557,0,0,55.555557,-21452.687,-9412.6695)"
       style="stroke-width:0.018">
      <circle
         style="fill:#1a1a1a;fill-rule:evenodd;stroke-width:0.00952501;stroke-linecap:round;stroke-linejoin:round;stroke-miterlimit:7.3;stroke-opacity:0.992157;paint-order:stroke fill markers"
         id="circle10"
         cx="390.92184"
         cy="172.64061"
         r="1.190625" />
      <path
         id="path10"
         style="font-weight:600;font-size:1.23417px;line-height:1.05;font-family:Inter;-inkscape-font-specification:'Inter Semi-Bold';letter-spacing:0.115704px;word-spacing:0px;fill:#f9f9f9;fill-rule:evenodd;stroke-width:0.000952501;stroke-linecap:round;stroke-linejoin:round;stroke-miterlimit:7.3;stroke-opacity:0.992157;paint-order:stroke fill markers"
         d="m 390.26041,172.07735 v 0.13229 h 0.52917 v -0.13229 z m 0.96118,0 v 0.1018 c -0.0466,0.004 -0.0896,0.0147 -0.12815,0.032 -0.0495,0.022 -0.0885,0.0531 -0.11731,0.093 -0.0286,0.0399 -0.0429,0.0864 -0.0429,0.13953 0,0.0646 0.0216,0.116 0.0641,0.15503 0.0428,0.0386 0.10052,0.0678 0.17415,0.0868 l 0.0501,0.0129 v 0.2651 c -0.0205,-0.002 -0.04,-0.007 -0.0579,-0.0134 -0.0271,-0.0103 -0.0488,-0.0262 -0.0656,-0.047 -0.0165,-0.0208 -0.0262,-0.0467 -0.0289,-0.078 h -0.15916 c 0.002,0.0598 0.0175,0.1103 0.046,0.15193 0.0288,0.0417 0.0689,0.0734 0.11989,0.0951 0.0423,0.0179 0.0909,0.0284 0.14572,0.0315 v 0.10026 h 0.0718 v -0.10026 c 0.056,-0.003 0.10473,-0.0136 0.14625,-0.032 0.0507,-0.0226 0.0895,-0.0541 0.11627,-0.094 0.0268,-0.0402 0.0403,-0.0867 0.0403,-0.13952 0,-0.0391 -0.007,-0.0728 -0.0217,-0.10181 -0.0145,-0.029 -0.0343,-0.0539 -0.0594,-0.0744 -0.0248,-0.0205 -0.0527,-0.0377 -0.0842,-0.0512 -0.0312,-0.0135 -0.0639,-0.0241 -0.0977,-0.032 l -0.0403,-0.0103 v -0.25012 h 5.1e-4 c 0.0327,0.004 0.0603,0.0139 0.0827,0.03 0.0304,0.0214 0.0477,0.0515 0.0517,0.0899 l 0.15555,-5.2e-4 c -8.5e-4,-0.0507 -0.0146,-0.0954 -0.0419,-0.13435 -0.0274,-0.0393 -0.0651,-0.07 -0.11317,-0.092 -0.0396,-0.0185 -0.0845,-0.0293 -0.13488,-0.0325 v -0.10129 z m -0.96118,0.19895 v 0.1323 h 0.52917 v -0.1323 z m 0.96118,0.0419 v 5.2e-4 0.23151 c -0.009,-0.003 -0.0173,-0.005 -0.0263,-0.009 -0.018,-0.006 -0.0348,-0.0144 -0.0496,-0.0238 -0.0148,-0.01 -0.0263,-0.0225 -0.0351,-0.0362 -0.008,-0.0137 -0.0129,-0.0298 -0.0129,-0.0486 2.7e-4,-0.0226 0.007,-0.043 0.0196,-0.0605 0.0129,-0.0176 0.0317,-0.0316 0.0558,-0.0419 0.0144,-0.006 0.0307,-0.0101 0.0486,-0.0124 z m -0.96118,0.1571 v 0.13229 h 0.52917 v -0.13229 z m 0,0.19844 v 0.13229 h 0.52917 v -0.13229 z m 1.03301,0.0434 c 0.0237,0.007 0.0454,0.0145 0.0641,0.0227 0.0241,0.0103 0.0424,0.0232 0.0558,0.0388 0.0134,0.0153 0.0204,0.0349 0.0207,0.0584 -2.7e-4,0.0258 -0.008,0.0484 -0.0233,0.0677 -0.0151,0.0191 -0.0358,0.0341 -0.0625,0.045 -0.0164,0.007 -0.035,0.0104 -0.0548,0.0129 z m -1.03301,0.15555 v 0.13229 h 0.52917 v -0.13229 z m 0,0.19895 v 0.1323 h 0.52917 v -0.1323 z" />
    </g>
  </g>
</svg>
