<?xml version="1.0" encoding="UTF-8" standalone="no"?>
<!-- Created with Inkscape (http://www.inkscape.org/) -->

<svg
   width="499.99997"
   height="500.00003"
   viewBox="0 0 132.29166 132.29167"
   version="1.1"
   id="svg1"
   inkscape:version="1.3 (0e150ed6c4, 2023-07-21)"
   sodipodi:docname="CirclesSoft Icons.svg"
   xmlns:inkscape="http://www.inkscape.org/namespaces/inkscape"
   xmlns:sodipodi="http://sodipodi.sourceforge.net/DTD/sodipodi-0.dtd"
   xmlns="http://www.w3.org/2000/svg"
   xmlns:svg="http://www.w3.org/2000/svg">
  <sodipodi:namedview
     id="namedview1"
     pagecolor="#505050"
     bordercolor="#eeeeee"
     borderopacity="1"
     inkscape:showpageshadow="0"
     inkscape:pageopacity="0"
     inkscape:pagecheckerboard="0"
     inkscape:deskcolor="#505050"
     inkscape:document-units="px"
     showgrid="true"
     inkscape:zoom="22.627417"
     inkscape:cx="1514.1366"
     inkscape:cy="654.29474"
     inkscape:window-width="1600"
     inkscape:window-height="837"
     inkscape:window-x="-8"
     inkscape:window-y="-8"
     inkscape:window-maximized="1"
     inkscape:current-layer="layer1"
     showguides="true" />
  <defs
     id="defs1" />
  <g
     inkscape:label="Layer 1"
     inkscape:groupmode="layer"
     id="layer1"
     transform="translate(-190.44725,-90.752105)">
    <g
       id="g10"
       transform="matrix(55.555557,0,0,55.555557,-21093.812,-8919.7811)"
       style="stroke-width:0.018">
      <circle
         style="fill:#1a1a1a;fill-rule:evenodd;stroke-width:0.00952501;stroke-linecap:round;stroke-linejoin:round;stroke-miterlimit:7.3;stroke-opacity:0.992157;paint-order:stroke fill markers"
         id="circle10"
         cx="384.30728"
         cy="163.38022"
         r="1.190625" />
      <path
         id="path10"
         style="color:#000000;fill:#f9f9f9;fill-opacity:0.992157;fill-rule:evenodd;stroke-width:0.018;stroke-linecap:square;stroke-miterlimit:7.3;-inkscape-stroke:none;paint-order:stroke fill markers"
         d="m 383.74195,162.95698 c -0.0677,0 -0.12299,0.0553 -0.12299,0.12299 v 0.59996 c 0,0.0676 0.0553,0.12299 0.12299,0.12299 h 1.13119 c 0.0676,0 0.12299,-0.0554 0.12299,-0.12299 v -0.59996 c 0,-0.0677 -0.0553,-0.12299 -0.12299,-0.12299 z m 0,0.0527 h 1.13119 c 0.0392,0 0.0682,0.0311 0.0682,0.0703 v 0.1018 h -0.0429 -1.19941 -0.0274 v -0.1018 c 0,-0.0392 0.0311,-0.0703 0.0703,-0.0703 z m -0.0703,0.30489 h 0.0274 1.19941 0.0429 v 0.36483 c 0,0.0392 -0.0289,0.0703 -0.0682,0.0703 h -1.13119 c -0.0392,0 -0.0703,-0.0311 -0.0703,-0.0703 z m 0.185,0.19792 a 0.06614583,0.06614583 0 0 0 -0.0661,0.0661 0.06614583,0.06614583 0 0 0 0.0661,0.0661 0.06614583,0.06614583 0 0 0 0.0522,-0.0253 0.06614583,0.06614583 0 0 0 0.0522,0.0253 0.06614583,0.06614583 0 0 0 0.0661,-0.0661 0.06614583,0.06614583 0 0 0 -0.0661,-0.0661 0.06614583,0.06614583 0 0 0 -0.0522,0.0253 0.06614583,0.06614583 0 0 0 -0.0522,-0.0253 z" />
    </g>
  </g>
</svg>
