<?xml version="1.0" encoding="UTF-8" standalone="no"?>
<!-- Created with Inkscape (http://www.inkscape.org/) -->

<svg
   width="499.99997"
   height="500.00003"
   viewBox="0 0 132.29166 132.29167"
   version="1.1"
   id="svg1"
   inkscape:version="1.3 (0e150ed6c4, 2023-07-21)"
   sodipodi:docname="CirclesSoft Icons.svg"
   xmlns:inkscape="http://www.inkscape.org/namespaces/inkscape"
   xmlns:sodipodi="http://sodipodi.sourceforge.net/DTD/sodipodi-0.dtd"
   xmlns="http://www.w3.org/2000/svg"
   xmlns:svg="http://www.w3.org/2000/svg">
  <sodipodi:namedview
     id="namedview1"
     pagecolor="#505050"
     bordercolor="#eeeeee"
     borderopacity="1"
     inkscape:showpageshadow="0"
     inkscape:pageopacity="0"
     inkscape:pagecheckerboard="0"
     inkscape:deskcolor="#505050"
     inkscape:document-units="px"
     showgrid="true"
     inkscape:zoom="22.627417"
     inkscape:cx="1514.1366"
     inkscape:cy="654.29474"
     inkscape:window-width="1600"
     inkscape:window-height="837"
     inkscape:window-x="-8"
     inkscape:window-y="-8"
     inkscape:window-maximized="1"
     inkscape:current-layer="layer1"
     showguides="true" />
  <defs
     id="defs1" />
  <g
     inkscape:label="Layer 1"
     inkscape:groupmode="layer"
     id="layer1"
     transform="translate(-170.88461)">
    <g
       id="g5"
       inkscape:export-filename="CirclesSoft Project Files\Icons\Circles One.svg"
       inkscape:export-xdpi="96"
       inkscape:export-ydpi="96"
       transform="matrix(55.555557,0,0,55.555557,-20819.392,-8716.5506)"
       style="stroke-width:0.018">
      <circle
         style="fill:#1a1a1a;fill-rule:evenodd;stroke-width:0.00952501;stroke-linecap:round;stroke-linejoin:round;stroke-miterlimit:7.3;stroke-opacity:0.992157;paint-order:stroke fill markers"
         id="circle5"
         cx="379.01559"
         cy="158.08853"
         r="1.190625" />
      <path
         style="color:#000000;-inkscape-font-specification:'Inter Semi-Bold';fill:#ffffff;fill-opacity:0.992157;fill-rule:evenodd;stroke-width:0.018;stroke-linecap:round;stroke-linejoin:round;stroke-miterlimit:7.3;-inkscape-stroke:none;paint-order:stroke fill markers"
         d="m 379.34961,157.25391 a 0.02646099,0.02646099 0 0 0 -0.0137,0.004 l -0.31446,0.20313 a 0.02646099,0.02646099 0 0 0 -0.0117,0.0215 v 0.21094 a 0.02646099,0.02646099 0 0 0 0.0391,0.0215 l 0.26367,-0.16797 v 1.00196 a 0.02646099,0.02646099 0 0 0 0.0273,0.0254 h 0.22852 a 0.02646099,0.02646099 0 0 0 0.0273,-0.0254 v -1.26953 a 0.02646099,0.02646099 0 0 0 -0.0273,-0.0254 z m 0.008,0.0527 h 0.18555 v 1.21484 h -0.17774 v -1.01757 a 0.02646099,0.02646099 0 0 0 -0.0254,-0.0273 h -0.008 a 0.02646099,0.02646099 0 0 0 -0.0137,0.004 l -0.25586,0.16406 v -0.14844 z"
         id="path5"
         transform="scale(0.99889671,1.0011045)" />
    </g>
  </g>
</svg>
