<?xml version="1.0" encoding="UTF-8" standalone="no"?>
<!-- Created with Inkscape (http://www.inkscape.org/) -->

<svg
   width="500.00009"
   height="499.99997"
   viewBox="0 0 132.29169 132.29166"
   version="1.1"
   id="svg1"
   inkscape:version="1.3 (0e150ed6c4, 2023-07-21)"
   sodipodi:docname="CirclesSoft Icons.svg"
   xmlns:inkscape="http://www.inkscape.org/namespaces/inkscape"
   xmlns:sodipodi="http://sodipodi.sourceforge.net/DTD/sodipodi-0.dtd"
   xmlns="http://www.w3.org/2000/svg"
   xmlns:svg="http://www.w3.org/2000/svg">
  <sodipodi:namedview
     id="namedview1"
     pagecolor="#505050"
     bordercolor="#eeeeee"
     borderopacity="1"
     inkscape:showpageshadow="0"
     inkscape:pageopacity="0"
     inkscape:pagecheckerboard="0"
     inkscape:deskcolor="#505050"
     inkscape:document-units="px"
     showgrid="true"
     inkscape:zoom="22.627417"
     inkscape:cx="1514.1366"
     inkscape:cy="654.29474"
     inkscape:window-width="1600"
     inkscape:window-height="837"
     inkscape:window-x="-8"
     inkscape:window-y="-8"
     inkscape:window-maximized="1"
     inkscape:current-layer="layer1"
     showguides="true" />
  <defs
     id="defs1" />
  <g
     inkscape:label="Layer 1"
     inkscape:groupmode="layer"
     id="layer1"
     transform="translate(-224.10251,-121.47678)">
    <g
       id="g23"
       transform="matrix(55.555557,0,0,55.555557,-22015.596,-9949.2261)"
       style="stroke-width:0.018">
      <circle
         style="fill:#1a1a1a;fill-rule:evenodd;stroke-width:0.00952501;stroke-linecap:round;stroke-linejoin:round;stroke-miterlimit:7.3;stroke-opacity:0.992157;paint-order:stroke fill markers"
         id="circle20"
         cx="401.50519"
         cy="182.46327"
         r="1.190625" />
      <path
         id="path23"
         style="fill:#f9f9f9;fill-rule:evenodd;stroke-width:0.00952499;stroke-linecap:round;stroke-linejoin:round;stroke-miterlimit:7.3;stroke-opacity:0.992157;paint-order:stroke fill markers"
         d="m 401.37264,181.78889 c -0.2737,0.0532 -0.48962,0.26858 -0.54312,0.54209 h 0.0537 c 0.0518,-0.24475 0.24443,-0.43681 0.48938,-0.48834 z m 0.26458,0 v 0.0538 c 0.24443,0.0519 0.43616,0.24392 0.48782,0.48834 h 0.0558 c -0.0536,-0.27326 -0.2701,-0.48854 -0.54364,-0.54209 z m -0.13229,0.0527 a 0.09921875,0.09921875 0 0 0 -0.0992,0.0992 0.09921875,0.09921875 0 0 0 0.0987,0.0992 0.19843749,0.19843749 0 0 0 -0.0987,0.0264 0.19843749,0.19843749 0 0 0 -0.0992,0.17208 h 0.39688 a 0.19843749,0.19843749 0 0 0 -0.0992,-0.17208 0.19843749,0.19843749 0 0 0 -0.0992,-0.0264 0.09921875,0.09921875 0 0 0 0.0992,-0.0992 0.09921875,0.09921875 0 0 0 -0.0992,-0.0992 z m -0.42323,0.35709 a 0.09921875,0.09921875 0 0 0 -0.0992,0.0992 0.09921875,0.09921875 0 0 0 0.0992,0.0992 0.09921875,0.09921875 0 0 0 0.0992,-0.0992 0.09921875,0.09921875 0 0 0 -0.0992,-0.0992 z m 0,0.19843 a 0.19843749,0.19843749 0 0 0 -0.0992,0.0264 0.19843749,0.19843749 0 0 0 -0.0992,0.17208 h 0.39688 a 0.19843749,0.19843749 0 0 0 -0.0992,-0.17208 0.19843749,0.19843749 0 0 0 -0.0992,-0.0264 z m -0.19844,0.19844 h -0.0537 c 0.0535,0.2735 0.26942,0.4889 0.54312,0.54209 v -0.0538 c -0.24495,-0.0515 -0.43755,-0.2436 -0.48938,-0.48834 z m 1.04335,-0.39687 a 0.09921875,0.09921875 0 0 0 -0.0992,0.0992 0.09921875,0.09921875 0 0 0 0.0992,0.0992 0.09921875,0.09921875 0 0 0 0.0992,-0.0992 0.09921875,0.09921875 0 0 0 -0.0992,-0.0992 z m 0,0.19843 a 0.19843749,0.19843749 0 0 0 -0.0992,0.0264 0.19843749,0.19843749 0 0 0 -0.0992,0.17208 h 0.39687 a 0.19843749,0.19843749 0 0 0 -0.0992,-0.17208 0.19843749,0.19843749 0 0 0 -0.0992,-0.0264 z m 0.19843,0.19844 c -0.0517,0.24442 -0.24339,0.43647 -0.48782,0.48834 v 0.0538 c 0.27354,-0.0536 0.49,-0.26883 0.54364,-0.54209 z m -0.62011,0.0661 a 0.09921875,0.09921875 0 0 0 -0.0992,0.0992 0.09921875,0.09921875 0 0 0 0.0987,0.0992 0.19843749,0.19843749 0 0 0 -0.0987,0.0264 0.19843749,0.19843749 0 0 0 -0.0992,0.17208 h 0.39688 a 0.19843749,0.19843749 0 0 0 -0.0992,-0.17208 0.19843749,0.19843749 0 0 0 -0.0992,-0.0264 0.09921875,0.09921875 0 0 0 0.0992,-0.0992 0.09921875,0.09921875 0 0 0 -0.0992,-0.0992 z" />
    </g>
  </g>
</svg>
