<?xml version="1.0" encoding="UTF-8" standalone="no"?>
<!-- Created with Inkscape (http://www.inkscape.org/) -->

<svg
   width="499.99997"
   height="500.00003"
   viewBox="0 0 132.29166 132.29167"
   version="1.1"
   id="svg1"
   inkscape:version="1.3 (0e150ed6c4, 2023-07-21)"
   sodipodi:docname="CirclesSoft Icons.svg"
   xmlns:inkscape="http://www.inkscape.org/namespaces/inkscape"
   xmlns:sodipodi="http://sodipodi.sourceforge.net/DTD/sodipodi-0.dtd"
   xmlns="http://www.w3.org/2000/svg"
   xmlns:svg="http://www.w3.org/2000/svg">
  <sodipodi:namedview
     id="namedview1"
     pagecolor="#505050"
     bordercolor="#eeeeee"
     borderopacity="1"
     inkscape:showpageshadow="0"
     inkscape:pageopacity="0"
     inkscape:pagecheckerboard="0"
     inkscape:deskcolor="#505050"
     inkscape:document-units="px"
     showgrid="true"
     inkscape:zoom="22.627417"
     inkscape:cx="1514.1366"
     inkscape:cy="654.29474"
     inkscape:window-width="1600"
     inkscape:window-height="837"
     inkscape:window-x="-8"
     inkscape:window-y="-8"
     inkscape:window-maximized="1"
     inkscape:current-layer="layer1"
     showguides="true" />
  <defs
     id="defs1" />
  <g
     inkscape:label="Layer 1"
     inkscape:groupmode="layer"
     id="layer1"
     transform="translate(-219.98683,-110.04466)">
    <g
       id="g44"
       transform="matrix(55.555557,0,0,55.555557,-22166.703,-9890.8374)"
       style="stroke-width:0.018">
      <circle
         style="fill:#1a1a1a;fill-rule:evenodd;stroke-width:0.00952501;stroke-linecap:round;stroke-linejoin:round;stroke-miterlimit:7.3;stroke-opacity:0.992157;paint-order:stroke fill markers"
         id="circle23"
         cx="404.15103"
         cy="181.2065"
         r="1.190625" />
      <circle
         style="fill:#f9f9f9;fill-rule:evenodd;stroke-width:0.00952501;stroke-linecap:round;stroke-linejoin:round;stroke-miterlimit:7.3;stroke-opacity:0.992157;paint-order:stroke fill markers"
         id="circle24"
         cx="404.15103"
         cy="181.2065"
         r="0.13228457" />
      <circle
         style="fill:#f9f9f9;fill-rule:evenodd;stroke-width:0.00952501;stroke-linecap:round;stroke-linejoin:round;stroke-miterlimit:7.3;stroke-opacity:0.992157;paint-order:stroke fill markers"
         id="circle25"
         cx="404.68018"
         cy="181.2065"
         r="0.13228457" />
      <circle
         style="fill:#f9f9f9;fill-rule:evenodd;stroke-width:0.00952501;stroke-linecap:round;stroke-linejoin:round;stroke-miterlimit:7.3;stroke-opacity:0.992157;paint-order:stroke fill markers"
         id="circle26"
         cx="404.68018"
         cy="180.67732"
         r="0.13228457" />
      <circle
         style="fill:#f9f9f9;fill-rule:evenodd;stroke-width:0.00952501;stroke-linecap:round;stroke-linejoin:round;stroke-miterlimit:7.3;stroke-opacity:0.992157;paint-order:stroke fill markers"
         id="circle27"
         cx="404.68018"
         cy="181.73567"
         r="0.13228457" />
      <circle
         style="fill:#f9f9f9;fill-rule:evenodd;stroke-width:0.00952501;stroke-linecap:round;stroke-linejoin:round;stroke-miterlimit:7.3;stroke-opacity:0.992157;paint-order:stroke fill markers"
         id="circle28"
         cx="403.62186"
         cy="181.2065"
         r="0.13228457" />
      <circle
         style="fill:#f9f9f9;fill-rule:evenodd;stroke-width:0.00952501;stroke-linecap:round;stroke-linejoin:round;stroke-miterlimit:7.3;stroke-opacity:0.992157;paint-order:stroke fill markers"
         id="circle29"
         cx="403.62186"
         cy="180.67732"
         r="0.13228457" />
      <circle
         style="fill:#f9f9f9;fill-rule:evenodd;stroke-width:0.00952501;stroke-linecap:round;stroke-linejoin:round;stroke-miterlimit:7.3;stroke-opacity:0.992157;paint-order:stroke fill markers"
         id="circle31"
         cx="403.62186"
         cy="181.73567"
         r="0.13228457" />
      <g
         id="path31"
         style="stroke-width:0.018">
        <path
           style="color:#000000;fill:#ffffff;fill-opacity:0.992157;fill-rule:evenodd;stroke-width:0.018;stroke-linecap:square;stroke-miterlimit:7.3;stroke-dasharray:0.000952501, 0.00190499;-inkscape-stroke:none;paint-order:stroke fill markers"
           d="m 404.23047,181.17969 v 0.0527 h 0.0273 0.0527 0.0254 v -0.0527 h -0.0254 -0.0527 z m 0.1582,0 v 0.0527 h 0.0274 0.0527 0.0254 v -0.0527 h -0.0254 -0.0527 z m 0.16016,0 v 0.0527 h 0.0254 0.0527 0.0273 v -0.0527 h -0.0273 -0.0527 z m 0.1582,0 v 0.0527 h 0.0254 0.0527 0.0273 v -0.0527 h -0.0273 -0.0527 z"
           id="path40" />
        <path
           style="color:#000000;fill:#f9f9f9;fill-rule:evenodd;stroke-width:0.018;stroke-linecap:square;stroke-miterlimit:7.3;stroke-dasharray:0.000952501, 0.00190499;-inkscape-stroke:none;paint-order:stroke fill markers"
           d="M 404.25686,181.2065 H 404.786"
           id="path41" />
      </g>
      <g
         id="path32"
         style="stroke-width:0.018">
        <path
           style="color:#000000;fill:#ffffff;fill-opacity:0.992157;fill-rule:evenodd;stroke-width:0.018;stroke-linecap:square;stroke-miterlimit:7.3;stroke-dasharray:0.000952501, 0.00190499;-inkscape-stroke:none;paint-order:stroke fill markers"
           d="m 403.49023,181.17969 v 0.0527 h 0.0254 0.0527 0.0273 v -0.0527 h -0.0273 -0.0527 z m 0.15821,0 v 0.0527 h 0.0254 0.0547 0.0254 v -0.0527 h -0.0254 -0.0547 z m 0.1582,0 v 0.0527 h 0.0273 0.0527 0.0254 v -0.0527 h -0.0254 -0.0527 z m 0.16016,0 v 0.0527 h 0.0254 0.0527 0.0274 v -0.0527 h -0.0274 -0.0527 z"
           id="path42" />
        <path
           style="color:#000000;fill:#f9f9f9;fill-rule:evenodd;stroke-width:0.018;stroke-linecap:square;stroke-miterlimit:7.3;stroke-dasharray:0.000952501, 0.00190499;-inkscape-stroke:none;paint-order:stroke fill markers"
           d="m 403.51603,181.2065 h 0.52914"
           id="path43" />
      </g>
      <path
         style="color:#000000;fill:#ffffff;fill-opacity:0.992157;fill-rule:evenodd;stroke-width:0.018;stroke-linecap:square;stroke-miterlimit:7.3;stroke-dasharray:0.000952501, 0.00190499;-inkscape-stroke:none;paint-order:stroke fill markers"
         d="m 404.44141,180.65039 v 0.0527 h 0.0273 0.0527 0.0274 v -0.0527 h -0.0274 -0.0527 z m 0,0.0527 h -0.0527 v 0.0273 0.0527 0.0274 h 0.0527 v -0.0274 -0.0527 z m 0.16015,-0.0527 v 0.0527 h 0.0254 0.0527 0.0273 v -0.0527 h -0.0273 -0.0527 z m -0.21289,0.21289 v 0.0254 0.0527 0.0273 h 0.0527 v -0.0273 -0.0527 -0.0254 z m 0,0.1582 v 0.0254 0.0547 0.0254 h 0.0527 v -0.0254 -0.0547 -0.0254 z m 0,0.15821 v 0.0273 0.0527 0.0254 h 0.0527 v -0.0254 -0.0527 -0.0273 z m 0,0.1582 v 0.0273 0.0527 0.0273 h 0.0527 v -0.0273 -0.0527 -0.0273 z m 0,0.16016 v 0.0254 0.0527 0.0274 h 0.0527 v -0.0274 -0.0527 -0.0254 z m 0,0.1582 v 0.0273 0.0527 0.0254 h 0.0527 v -0.0254 -0.0527 -0.0273 z m 0.10547,0.0527 v 0.0527 h 0.0273 0.0527 0.0273 v -0.0527 h -0.0273 -0.0527 z"
         id="path33" />
      <path
         style="color:#000000;fill:#ffffff;fill-opacity:0.992157;fill-rule:evenodd;stroke-width:0.018;stroke-linecap:square;stroke-miterlimit:7.3;stroke-dasharray:0.000952501, 0.00190499;-inkscape-stroke:none;paint-order:stroke fill markers"
         d="m 403.5957,180.65039 v 0.0527 h 0.0254 0.0527 0.0273 v -0.0527 h -0.0273 -0.0527 z m 0.15821,0 v 0.0527 h 0.0273 0.0527 0.0254 v -0.0527 h -0.0254 -0.0527 z m 0.10546,0.0527 v 0.0273 0.0527 0.0254 h 0.0527 v -0.0254 -0.0527 -0.0273 z m 0,0.16016 v 0.0254 0.0527 0.0273 h 0.0527 v -0.0273 -0.0527 -0.0254 z m 0,0.1582 v 0.0254 0.0547 0.0254 h 0.0527 v -0.0254 -0.0547 -0.0254 z m 0,0.15821 v 0.0273 0.0527 0.0254 h 0.0527 v -0.0254 -0.0527 -0.0273 z m 0,0.1582 v 0.0273 0.0527 0.0273 h 0.0527 v -0.0273 -0.0527 -0.0273 z m 0,0.16016 v 0.0254 0.0527 0.0274 h 0.0527 v -0.0274 -0.0527 -0.0254 z m 0,0.1582 v 0.0273 0.0527 0.0254 h 0.0527 v -0.0254 -0.0527 -0.0273 z m -0.26367,0.0527 v 0.0527 h 0.0254 0.0274 v -0.0527 h -0.0274 z m 0.10547,0 v 0.0527 h 0.0274 0.0527 0.0254 v -0.0527 h -0.0254 -0.0527 z"
         id="path34" />
      <rect
         style="fill:#f9f9f9;fill-rule:evenodd;stroke:none;stroke-width:0.000952501;stroke-linecap:square;stroke-linejoin:miter;stroke-miterlimit:7.3;stroke-dasharray:0.000952501, 0.00190499;stroke-dashoffset:0;stroke-opacity:0.992157;paint-order:stroke fill markers"
         id="rect34"
         width="0.26456913"
         height="0.26458332"
         x="404.01874"
         y="181.0742" />
      <rect
         style="fill:#f9f9f9;fill-rule:evenodd;stroke:none;stroke-width:0.000952501;stroke-linecap:square;stroke-linejoin:miter;stroke-miterlimit:7.3;stroke-dasharray:0.000952501, 0.00190499;stroke-dashoffset:0;stroke-opacity:0.992157;paint-order:stroke fill markers"
         id="rect35"
         width="0.26456913"
         height="0.26458332"
         x="404.54788"
         y="180.54503" />
      <rect
         style="fill:#f9f9f9;fill-rule:evenodd;stroke:none;stroke-width:0.000952501;stroke-linecap:square;stroke-linejoin:miter;stroke-miterlimit:7.3;stroke-dasharray:0.000952501, 0.00190499;stroke-dashoffset:0;stroke-opacity:0.992157;paint-order:stroke fill markers"
         id="rect36"
         width="0.26456913"
         height="0.26458332"
         x="404.54788"
         y="181.0742" />
      <rect
         style="fill:#f9f9f9;fill-rule:evenodd;stroke:none;stroke-width:0.000952501;stroke-linecap:square;stroke-linejoin:miter;stroke-miterlimit:7.3;stroke-dasharray:0.000952501, 0.00190499;stroke-dashoffset:0;stroke-opacity:0.992157;paint-order:stroke fill markers"
         id="rect37"
         width="0.26456913"
         height="0.26458332"
         x="404.54788"
         y="181.60338" />
      <rect
         style="fill:#f9f9f9;fill-rule:evenodd;stroke:none;stroke-width:0.000952501;stroke-linecap:square;stroke-linejoin:miter;stroke-miterlimit:7.3;stroke-dasharray:0.000952501, 0.00190499;stroke-dashoffset:0;stroke-opacity:0.992157;paint-order:stroke fill markers"
         id="rect38"
         width="0.26456913"
         height="0.26458332"
         x="403.48956"
         y="180.54503" />
      <rect
         style="fill:#f9f9f9;fill-rule:evenodd;stroke:none;stroke-width:0.000952501;stroke-linecap:square;stroke-linejoin:miter;stroke-miterlimit:7.3;stroke-dasharray:0.000952501, 0.00190499;stroke-dashoffset:0;stroke-opacity:0.992157;paint-order:stroke fill markers"
         id="rect39"
         width="0.26456913"
         height="0.26458332"
         x="403.48956"
         y="181.0742" />
      <rect
         style="fill:#f9f9f9;fill-rule:evenodd;stroke:none;stroke-width:0.000952501;stroke-linecap:square;stroke-linejoin:miter;stroke-miterlimit:7.3;stroke-dasharray:0.000952501, 0.00190499;stroke-dashoffset:0;stroke-opacity:0.992157;paint-order:stroke fill markers"
         id="rect40"
         width="0.26456913"
         height="0.26458332"
         x="403.48956"
         y="181.60338" />
    </g>
  </g>
</svg>
