<?xml version="1.0" encoding="UTF-8" standalone="no"?>
<!-- Created with Inkscape (http://www.inkscape.org/) -->

<svg
   width="499.99997"
   height="500.00003"
   viewBox="0 0 132.29166 132.29167"
   version="1.1"
   id="svg1"
   inkscape:version="1.3 (0e150ed6c4, 2023-07-21)"
   sodipodi:docname="CirclesSoft Icons.svg"
   xmlns:inkscape="http://www.inkscape.org/namespaces/inkscape"
   xmlns:sodipodi="http://sodipodi.sourceforge.net/DTD/sodipodi-0.dtd"
   xmlns="http://www.w3.org/2000/svg"
   xmlns:svg="http://www.w3.org/2000/svg">
  <sodipodi:namedview
     id="namedview1"
     pagecolor="#505050"
     bordercolor="#eeeeee"
     borderopacity="1"
     inkscape:showpageshadow="0"
     inkscape:pageopacity="0"
     inkscape:pagecheckerboard="0"
     inkscape:deskcolor="#505050"
     inkscape:document-units="px"
     showgrid="true"
     inkscape:zoom="22.627417"
     inkscape:cx="1514.1366"
     inkscape:cy="654.29474"
     inkscape:window-width="1600"
     inkscape:window-height="837"
     inkscape:window-x="-8"
     inkscape:window-y="-8"
     inkscape:window-maximized="1"
     inkscape:current-layer="layer1"
     showguides="true" />
  <defs
     id="defs1" />
  <g
     inkscape:label="Layer 1"
     inkscape:groupmode="layer"
     id="layer1"
     transform="translate(-223.6496,-147.4254)">
    <g
       id="g10"
       transform="matrix(55.555557,0,0,55.555557,-21722.068,-9726.6773)"
       style="stroke-width:0.018">
      <circle
         style="fill:#1a1a1a;fill-rule:evenodd;stroke-width:0.00952501;stroke-linecap:round;stroke-linejoin:round;stroke-miterlimit:7.3;stroke-opacity:0.992157;paint-order:stroke fill markers"
         id="circle10"
         cx="396.21353"
         cy="178.92447"
         r="1.190625" />
      <path
         id="path10"
         style="fill:#f9f9f9;fill-rule:evenodd;stroke-width:0.00952499;stroke-linecap:round;stroke-linejoin:round;stroke-miterlimit:7.3;stroke-opacity:0.992157;paint-order:stroke fill markers"
         d="m 396.08075,178.2501 c -0.2737,0.0532 -0.48962,0.26857 -0.54312,0.54208 h 0.0537 c 0.0518,-0.24475 0.24443,-0.43681 0.48938,-0.48834 z m 0.26458,0 v 0.0537 c 0.24443,0.0519 0.43616,0.24392 0.48782,0.48834 h 0.0558 c -0.0536,-0.27326 -0.27009,-0.48853 -0.54363,-0.54208 z m -0.13229,0.2775 a 0.1984375,0.1984375 0 0 0 -0.19844,0.19844 0.1984375,0.1984375 0 0 0 0.19844,0.19843 0.1984375,0.1984375 0 0 0 0.19843,-0.19843 0.1984375,0.1984375 0 0 0 -0.19843,-0.19844 z m 0,0.39687 a 0.39687499,0.39687499 0 0 0 -0.19844,0.0532 0.39687499,0.39687499 0 0 0 -0.0377,0.0269 v 0.12506 h 0.14572 v -0.12971 h 0.062 v 0.32143 h 0.0904 v -0.32143 h 0.14211 c 0.0125,0 0.0244,0.002 0.0351,0.006 a 0.39687499,0.39687499 0 0 0 -0.0408,-0.0284 0.39687499,0.39687499 0 0 0 -0.19843,-0.0532 z m 0.12454,0.13023 v 0.10438 h 0.0786 c 0.008,0 0.0146,-0.003 0.0207,-0.007 0.006,-0.005 0.0108,-0.0111 0.0145,-0.0191 0.003,-0.008 0.005,-0.0162 0.005,-0.0258 0,-0.0103 -0.002,-0.0193 -0.006,-0.0269 -0.004,-0.008 -0.009,-0.0141 -0.016,-0.0186 -0.006,-0.005 -0.0133,-0.007 -0.0212,-0.007 z m 0.16898,0.001 c 0.002,0.004 0.004,0.008 0.005,0.0119 0.005,0.0127 0.008,0.026 0.008,0.0393 0,0.0136 -0.003,0.0266 -0.007,0.0393 -0.005,0.0123 -0.011,0.0231 -0.0196,0.0325 -0.009,0.009 -0.0192,0.0166 -0.031,0.0217 l 0.0734,0.12092 h 0.0744 a 0.39687499,0.39687499 0 0 0 -0.10335,-0.26562 z m -0.96893,0.001 c 0.0535,0.2735 0.26942,0.4889 0.54312,0.54209 v -0.0537 c -0.24495,-0.0515 -0.43755,-0.24361 -0.48938,-0.48835 z m 1.29552,0 c -0.0517,0.24442 -0.24339,0.43648 -0.48782,0.48835 v 0.0537 c 0.27354,-0.0536 0.48999,-0.26883 0.54363,-0.54209 z m -0.9188,0.004 a 0.39687499,0.39687499 0 0 0 -0.0982,0.26045 h 0.0982 z m 0.0625,0.12351 v 0.13694 h 0.14572 v -0.13694 z m 0.36121,0.0289 v 0.10801 h 0.12868 l -0.0661,-0.10801 z" />
    </g>
  </g>
</svg>
