<?xml version="1.0" encoding="UTF-8" standalone="no"?>
<!-- Created with Inkscape (http://www.inkscape.org/) -->

<svg
   width="499.99997"
   height="499.99997"
   viewBox="0 0 132.29166 132.29166"
   version="1.1"
   id="svg1"
   inkscape:version="1.3 (0e150ed6c4, 2023-07-21)"
   sodipodi:docname="CirclesSoft Icons.svg"
   xmlns:inkscape="http://www.inkscape.org/namespaces/inkscape"
   xmlns:sodipodi="http://sodipodi.sourceforge.net/DTD/sodipodi-0.dtd"
   xmlns:xlink="http://www.w3.org/1999/xlink"
   xmlns="http://www.w3.org/2000/svg"
   xmlns:svg="http://www.w3.org/2000/svg">
  <sodipodi:namedview
     id="namedview1"
     pagecolor="#505050"
     bordercolor="#eeeeee"
     borderopacity="1"
     inkscape:showpageshadow="0"
     inkscape:pageopacity="0"
     inkscape:pagecheckerboard="0"
     inkscape:deskcolor="#505050"
     inkscape:document-units="px"
     showgrid="true"
     inkscape:zoom="22.627417"
     inkscape:cx="1514.1366"
     inkscape:cy="654.29474"
     inkscape:window-width="1600"
     inkscape:window-height="837"
     inkscape:window-x="-8"
     inkscape:window-y="-8"
     inkscape:window-maximized="1"
     inkscape:current-layer="layer1"
     showguides="true" />
  <defs
     id="defs1">
    <linearGradient
       id="linearGradient109"
       inkscape:collect="always">
      <stop
         style="stop-color:#f9f9f9;stop-opacity:1;"
         offset="0"
         id="stop109" />
      <stop
         style="stop-color:#0e0e0e;stop-opacity:1;"
         offset="1"
         id="stop110" />
    </linearGradient>
    <linearGradient
       inkscape:collect="always"
       xlink:href="#linearGradient109"
       id="linearGradient110"
       x1="384.70416"
       y1="175.94791"
       x2="384.70416"
       y2="174.62498"
       gradientUnits="userSpaceOnUse" />
  </defs>
  <g
     inkscape:label="Layer 1"
     inkscape:groupmode="layer"
     id="layer1"
     transform="translate(-185.83693,-90.752074)">
    <g
       id="g119"
       inkscape:export-filename="CirclesSoft Project Files\Icons\Circles One.svg"
       inkscape:export-xdpi="96"
       inkscape:export-ydpi="96">
      <circle
         style="fill:#1a1a1a;fill-rule:evenodd;stroke-width:0.529167;stroke-linecap:round;stroke-linejoin:round;stroke-miterlimit:7.3;stroke-opacity:0.992157;paint-order:stroke fill markers"
         id="circle16"
         cx="379.01559"
         cy="158.08853"
         r="1.190625" />
      <path
         style="color:#000000;-inkscape-font-specification:'Inter Semi-Bold';fill:#ffffff;fill-opacity:0.992157;fill-rule:evenodd;stroke-linecap:round;stroke-linejoin:round;stroke-miterlimit:7.3;-inkscape-stroke:none;paint-order:stroke fill markers"
         d="m 379.34961,157.25391 a 0.02646099,0.02646099 0 0 0 -0.0137,0.004 l -0.31446,0.20313 a 0.02646099,0.02646099 0 0 0 -0.0117,0.0215 v 0.21094 a 0.02646099,0.02646099 0 0 0 0.0391,0.0215 l 0.26367,-0.16797 v 1.00196 a 0.02646099,0.02646099 0 0 0 0.0273,0.0254 h 0.22852 a 0.02646099,0.02646099 0 0 0 0.0273,-0.0254 v -1.26953 a 0.02646099,0.02646099 0 0 0 -0.0273,-0.0254 z m 0.008,0.0527 h 0.18555 v 1.21484 h -0.17774 v -1.01757 a 0.02646099,0.02646099 0 0 0 -0.0254,-0.0273 h -0.008 a 0.02646099,0.02646099 0 0 0 -0.0137,0.004 l -0.25586,0.16406 v -0.14844 z"
         id="text1"
         transform="scale(0.99889671,1.0011045)" />
    </g>
    <g
       id="g120">
      <circle
         style="fill:#1a1a1a;fill-rule:evenodd;stroke-width:0.529167;stroke-linecap:round;stroke-linejoin:round;stroke-miterlimit:7.3;stroke-opacity:0.992157;paint-order:stroke fill markers"
         id="circle1"
         cx="381.66144"
         cy="158.08853"
         r="1.190625" />
      <path
         id="path2"
         style="color:#000000;fill:#f9f9f9;fill-opacity:0.992157;fill-rule:evenodd;stroke-linecap:round;stroke-linejoin:round;stroke-miterlimit:7.3;-inkscape-stroke:none;paint-order:stroke fill markers"
         d="m 381.26355,157.40021 a 0.02646099,0.02646099 0 0 0 -0.0253,0.0274 v 1.3224 a 0.02646099,0.02646099 0 0 0 0.0253,0.0274 h 0.7953 a 0.02646099,0.02646099 0 0 0 0.0253,-0.0274 v -1.3224 a 0.02646099,0.02646099 0 0 0 -0.0253,-0.0274 z m 0.0274,0.0527 h 0.74053 v 1.26969 h -0.74053 z m 0.23823,0.0786 a 0.02645835,0.02645835 0 0 0 -0.0274,0.0269 0.02645835,0.02645835 0 0 0 0.0274,0.0274 h 0.26355 a 0.02645835,0.02645835 0 0 0 0.0274,-0.0274 0.02645835,0.02645835 0 0 0 -0.0274,-0.0269 z m 0.13229,1.01492 a 0.06614583,0.06614583 0 0 0 -0.0661,0.0661 0.06614583,0.06614583 0 0 0 0.0661,0.0661 0.06614583,0.06614583 0 0 0 0.0661,-0.0661 0.06614583,0.06614583 0 0 0 -0.0661,-0.0661 z" />
    </g>
    <g
       id="g121">
      <circle
         style="fill:#1a1a1a;fill-rule:evenodd;stroke-width:0.529167;stroke-linecap:round;stroke-linejoin:round;stroke-miterlimit:7.3;stroke-opacity:0.992157;paint-order:stroke fill markers"
         id="circle4"
         cx="384.30728"
         cy="158.08853"
         r="1.190625" />
      <path
         id="path13"
         style="color:#000000;fill:#f9f9f9;fill-opacity:0.992157;fill-rule:evenodd;stroke-linecap:round;stroke-linejoin:round;stroke-miterlimit:7.3;-inkscape-stroke:none;paint-order:stroke fill markers"
         d="m 383.84375,157.40021 c -0.12389,0 -0.22479,0.1009 -0.22479,0.22479 0,0.0637 0.027,0.12135 0.0698,0.16227 -0.0444,0.0909 -0.0698,0.19277 -0.0698,0.30075 0,0.10837 0.0256,0.21089 0.0703,0.30231 -0.043,0.0409 -0.0703,0.0983 -0.0703,0.16226 0,0.1239 0.1009,0.2248 0.22479,0.2248 0.0638,0 0.12135,-0.027 0.16226,-0.0698 0.0908,0.0446 0.19293,0.0698 0.30076,0.0698 0.10825,0 0.21046,-0.0259 0.30179,-0.0708 0.041,0.0433 0.0986,0.0708 0.16278,0.0708 0.1239,0 0.22479,-0.1009 0.22479,-0.2248 0,-0.0641 -0.027,-0.12182 -0.0703,-0.16278 0.0448,-0.0913 0.0703,-0.19362 0.0703,-0.30179 0,-0.10766 -0.0253,-0.20951 -0.0698,-0.30024 0.043,-0.0409 0.0698,-0.0988 0.0698,-0.16278 0,-0.12389 -0.10089,-0.22479 -0.22479,-0.22479 -0.064,0 -0.12133,0.0273 -0.16226,0.0703 -0.0914,-0.0447 -0.19394,-0.0703 -0.30231,-0.0703 -0.10788,0 -0.2099,0.0254 -0.30076,0.0698 -0.0409,-0.0428 -0.0985,-0.0698 -0.16226,-0.0698 z m 0,0.0527 c 0.0953,0 0.17208,0.0768 0.17208,0.17208 0,0.0953 -0.0768,0.17209 -0.17208,0.17209 -0.0953,0 -0.17207,-0.0768 -0.17208,-0.17209 0,-0.0953 0.0768,-0.17208 0.17208,-0.17208 z m 0.46302,0 c 0.0966,0 0.18786,0.022 0.26975,0.0605 -0.0189,0.0329 -0.0294,0.071 -0.0294,0.11162 0,0.12389 0.10038,0.22479 0.22427,0.22479 0.0403,0 0.0784,-0.0108 0.11111,-0.0295 0.0378,0.0813 0.0589,0.17202 0.0589,0.26768 0,0.0962 -0.0217,0.18708 -0.0599,0.26872 -0.0325,-0.0183 -0.0702,-0.0284 -0.11007,-0.0284 -0.12389,0 -0.22426,0.10038 -0.22427,0.22427 0,0.0399 0.0101,0.0776 0.0284,0.11008 -0.0817,0.0382 -0.17249,0.0599 -0.26872,0.0599 -0.0957,0 -0.18638,-0.0211 -0.26768,-0.0589 0.0187,-0.0327 0.0294,-0.0708 0.0294,-0.11111 0,-0.12389 -0.1009,-0.22427 -0.22479,-0.22427 -0.0406,0 -0.0787,0.0105 -0.11162,0.0294 -0.0385,-0.0819 -0.0605,-0.17315 -0.0605,-0.26975 0,-0.0961 0.0218,-0.18715 0.0599,-0.26871 0.0331,0.0192 0.0712,0.0305 0.11214,0.0305 0.12389,0 0.22479,-0.1009 0.22479,-0.22479 0,-0.0411 -0.0112,-0.0795 -0.0305,-0.11265 0.0815,-0.0381 0.17267,-0.0594 0.26872,-0.0594 z m 0.46457,0 c 0.0953,0 0.17208,0.0768 0.17208,0.17208 0,0.0953 -0.0768,0.17209 -0.17208,0.17209 -0.0953,0 -0.17156,-0.0768 -0.17156,-0.17209 0,-0.0953 0.0763,-0.17208 0.17156,-0.17208 z m -0.93637,0.92811 c 0.003,-1.5e-4 0.006,0 0.009,0 0.0953,0 0.17208,0.0763 0.17208,0.17156 0,0.0953 -0.0768,0.17209 -0.17208,0.17209 -0.0953,0 -0.17207,-0.0768 -0.17208,-0.17209 0,-0.0923 0.0722,-0.16698 0.1633,-0.17156 z m 0.92759,0 c 0.003,-1.5e-4 0.006,0 0.009,0 0.0953,0 0.17208,0.0763 0.17208,0.17156 0,0.0953 -0.0768,0.17209 -0.17208,0.17209 -0.0953,0 -0.17156,-0.0768 -0.17156,-0.17209 0,-0.0923 0.0717,-0.16698 0.16278,-0.17156 z" />
    </g>
    <circle
       style="fill:#1a1a1a;fill-rule:evenodd;stroke-width:0.529167;stroke-linecap:round;stroke-linejoin:round;stroke-miterlimit:7.3;stroke-opacity:0.992157;paint-order:stroke fill markers"
       id="circle17"
       cx="379.01559"
       cy="160.73436"
       r="1.190625" />
    <g
       id="g37"
       transform="translate(-2.5517578e-5)">
      <path
         style="color:#000000;fill:#ffffff;fill-opacity:0.992157;fill-rule:evenodd;stroke-linecap:round;stroke-linejoin:round;stroke-miterlimit:7.3;-inkscape-stroke:none;paint-order:stroke fill markers"
         d="m 378.875,160.17969 a 0.02645835,0.02645835 0 0 0 -0.0156,0.0137 l -0.24804,0.49609 -0.23828,-0.23828 a 0.02645835,0.02645835 0 0 0 -0.0371,0 0.02645835,0.02645835 0 0 0 0,0.0371 l 0.26367,0.26563 a 0.02646099,0.02646099 0 0 0 0.043,-0.008 l 0.26367,-0.52929 a 0.02645835,0.02645835 0 0 0 -0.0117,-0.0352 0.02645835,0.02645835 0 0 0 -0.0195,-0.002 z"
         id="path19" />
      <path
         style="color:#000000;fill:#ffffff;fill-opacity:0.992157;fill-rule:evenodd;stroke-linecap:round;stroke-linejoin:round;stroke-miterlimit:7.3;-inkscape-stroke:none;paint-order:stroke fill markers"
         d="m 378.88281,160.44336 a 0.02645835,0.02645835 0 0 0 -0.0254,0.0273 0.02645835,0.02645835 0 0 0 0.0254,0.0254 h 0.79492 a 0.02645835,0.02645835 0 0 0 0.0254,-0.0254 0.02645835,0.02645835 0 0 0 -0.0254,-0.0273 z"
         id="path20" />
      <path
         style="color:#000000;fill:#ffffff;fill-opacity:0.992157;fill-rule:evenodd;stroke-linecap:round;stroke-linejoin:round;stroke-miterlimit:7.3;-inkscape-stroke:none;paint-order:stroke fill markers"
         d="m 378.875,160.70898 a 0.02645835,0.02645835 0 0 0 -0.0156,0.0137 l -0.24804,0.49609 -0.23828,-0.23828 a 0.02645835,0.02645835 0 0 0 -0.0371,0 0.02645835,0.02645835 0 0 0 0,0.0371 l 0.26367,0.26562 a 0.02646099,0.02646099 0 0 0 0.043,-0.008 l 0.26367,-0.5293 a 0.02645835,0.02645835 0 0 0 -0.0117,-0.0352 0.02645835,0.02645835 0 0 0 -0.0195,-0.002 z"
         id="path21" />
      <path
         style="color:#000000;fill:#ffffff;fill-opacity:0.992157;fill-rule:evenodd;stroke-linecap:round;stroke-linejoin:round;stroke-miterlimit:7.3;-inkscape-stroke:none;paint-order:stroke fill markers"
         d="m 378.88281,160.97266 a 0.02645835,0.02645835 0 0 0 -0.0254,0.0254 0.02645835,0.02645835 0 0 0 0.0254,0.0273 h 0.79492 a 0.02645835,0.02645835 0 0 0 0.0254,-0.0273 0.02645835,0.02645835 0 0 0 -0.0254,-0.0254 z"
         id="path22" />
    </g>
    <g
       id="g123">
      <circle
         style="fill:#1a1a1a;fill-rule:evenodd;stroke-width:0.529167;stroke-linecap:round;stroke-linejoin:round;stroke-miterlimit:7.3;stroke-opacity:0.992157;paint-order:stroke fill markers"
         id="circle18"
         cx="381.66144"
         cy="160.73436"
         r="1.190625" />
      <path
         id="path24"
         style="color:#000000;fill:#ffffff;fill-opacity:0.992157;fill-rule:evenodd;stroke-linecap:round;stroke-linejoin:round;stroke-miterlimit:7.3;-inkscape-stroke:none;paint-order:stroke fill markers"
         d="m 381,160.17989 a 0.02646099,0.02646099 0 0 0 -0.0274,0.0253 v 0.79271 A 0.02646099,0.02646099 0 0 0 381,161.0253 h 0.23822 v 0.23823 a 0.02645835,0.02645835 0 0 0 0.0253,0.0253 0.02645835,0.02645835 0 0 0 0.0274,-0.0253 v -0.23823 h 0.74053 v 0.23823 a 0.02645835,0.02645835 0 0 0 0.0274,0.0253 0.02645835,0.02645835 0 0 0 0.0253,-0.0253 v -0.23823 h 0.23823 a 0.02646099,0.02646099 0 0 0 0.0274,-0.0274 v -0.79271 a 0.02646099,0.02646099 0 0 0 -0.0274,-0.0253 z m 0.0274,0.0527 h 1.26969 v 0.74 h -1.03352 -0.23617 z m 0.23617,0.21084 a 0.02645835,0.02645835 0 0 0 -0.0253,0.0274 0.02645835,0.02645835 0 0 0 0.0253,0.0253 h 0.7953 a 0.02645835,0.02645835 0 0 0 0.0253,-0.0253 0.02645835,0.02645835 0 0 0 -0.0253,-0.0274 z m 0,0.26354 a 0.02645835,0.02645835 0 0 0 -0.0253,0.0274 0.02645835,0.02645835 0 0 0 0.0253,0.0274 h 0.13074 a 0.02645835,0.02645835 0 0 0 0.0274,-0.0274 0.02645835,0.02645835 0 0 0 -0.0274,-0.0274 z m 0.26561,0 a 0.02645835,0.02645835 0 0 0 -0.0274,0.0274 0.02645835,0.02645835 0 0 0 0.0274,0.0274 h 0.52969 a 0.02645835,0.02645835 0 0 0 0.0253,-0.0274 0.02645835,0.02645835 0 0 0 -0.0253,-0.0274 z" />
    </g>
    <circle
       style="fill:#1a1a1a;fill-rule:evenodd;stroke-width:0.529167;stroke-linecap:round;stroke-linejoin:round;stroke-miterlimit:7.3;stroke-opacity:0.992157;paint-order:stroke fill markers"
       id="circle19"
       cx="384.30728"
       cy="160.73436"
       r="1.190625" />
    <path
       id="circle30"
       style="fill:#f9f9f9;fill-rule:evenodd;stroke-width:0.529166;stroke-linecap:round;stroke-linejoin:round;stroke-miterlimit:7.3;stroke-opacity:0.992157;paint-order:stroke fill markers"
       d="m 384.175,160.06 c -0.2737,0.0532 -0.48962,0.26857 -0.54312,0.54208 h 0.0537 c 0.0518,-0.24475 0.24443,-0.43681 0.48938,-0.48834 z m 0.26458,0 v 0.0537 c 0.24443,0.0519 0.43617,0.24392 0.48783,0.48834 h 0.0558 c -0.0536,-0.27326 -0.2701,-0.48853 -0.54364,-0.54208 z m -0.13229,0.2775 a 0.1984375,0.1984375 0 0 0 -0.19844,0.19844 0.1984375,0.1984375 0 0 0 0.19844,0.19843 0.1984375,0.1984375 0 0 0 0.19844,-0.19843 0.1984375,0.1984375 0 0 0 -0.19844,-0.19844 z m 0,0.39687 a 0.39687499,0.39687499 0 0 0 -0.19844,0.0532 0.39687499,0.39687499 0 0 0 -0.19844,0.34365 h 0.79375 a 0.39687499,0.39687499 0 0 0 -0.19843,-0.34365 0.39687499,0.39687499 0 0 0 -0.19844,-0.0532 z m -0.67541,0.1323 c 0.0535,0.2735 0.26942,0.48889 0.54312,0.54208 v -0.0537 c -0.24495,-0.0515 -0.43755,-0.2436 -0.48938,-0.48834 z m 1.29553,0 c -0.0517,0.24442 -0.2434,0.43647 -0.48783,0.48834 v 0.0537 c 0.27354,-0.0536 0.49,-0.26882 0.54364,-0.54208 z" />
    <g
       id="g127">
      <circle
         style="fill:#1a1a1a;fill-rule:evenodd;stroke-width:0.529167;stroke-linecap:round;stroke-linejoin:round;stroke-miterlimit:7.3;stroke-opacity:0.992157;paint-order:stroke fill markers"
         id="circle35"
         cx="384.30728"
         cy="163.38022"
         r="1.190625" />
      <path
         id="path36"
         style="color:#000000;fill:#f9f9f9;fill-opacity:0.992157;fill-rule:evenodd;stroke-linecap:square;stroke-miterlimit:7.3;-inkscape-stroke:none;paint-order:stroke fill markers"
         d="m 383.74195,162.95698 c -0.0677,0 -0.12299,0.0553 -0.12299,0.12299 v 0.59996 c 0,0.0676 0.0553,0.12299 0.12299,0.12299 h 1.13119 c 0.0676,0 0.12299,-0.0554 0.12299,-0.12299 v -0.59996 c 0,-0.0677 -0.0553,-0.12299 -0.12299,-0.12299 z m 0,0.0527 h 1.13119 c 0.0392,0 0.0682,0.0311 0.0682,0.0703 v 0.1018 h -0.0429 -1.19941 -0.0274 v -0.1018 c 0,-0.0392 0.0311,-0.0703 0.0703,-0.0703 z m -0.0703,0.30489 h 0.0274 1.19941 0.0429 v 0.36483 c 0,0.0392 -0.0289,0.0703 -0.0682,0.0703 h -1.13119 c -0.0392,0 -0.0703,-0.0311 -0.0703,-0.0703 z m 0.185,0.19792 a 0.06614583,0.06614583 0 0 0 -0.0661,0.0661 0.06614583,0.06614583 0 0 0 0.0661,0.0661 0.06614583,0.06614583 0 0 0 0.0522,-0.0253 0.06614583,0.06614583 0 0 0 0.0522,0.0253 0.06614583,0.06614583 0 0 0 0.0661,-0.0661 0.06614583,0.06614583 0 0 0 -0.0661,-0.0661 0.06614583,0.06614583 0 0 0 -0.0522,0.0253 0.06614583,0.06614583 0 0 0 -0.0522,-0.0253 z" />
    </g>
    <g
       id="g125">
      <circle
         style="fill:#1a1a1a;fill-rule:evenodd;stroke-width:0.529167;stroke-linecap:round;stroke-linejoin:round;stroke-miterlimit:7.3;stroke-opacity:0.992157;paint-order:stroke fill markers"
         id="circle33"
         cx="379.01559"
         cy="163.38022"
         r="1.190625" />
      <path
         id="path37"
         style="color:#000000;fill:#f9f9f9;fill-opacity:0.992157;fill-rule:evenodd;stroke-linecap:square;stroke-miterlimit:7.3;-inkscape-stroke:none;paint-order:stroke fill markers"
         d="m 379.0412,162.64475 -0.0215,0.0663 -0.11341,0.34964 h -0.4375 l 0.35368,0.25775 -0.13493,0.41778 0.35368,-0.25775 0.35547,0.25775 -0.13492,-0.41778 0.35368,-0.25775 h -0.43751 z m 0,0.14838 0.10355,0.31423 h 0.32992 l -0.26761,0.19544 0.10175,0.31424 -0.20978,-0.15286 v -0.21562 c 1.2e-4,-0.0318 -0.0256,-0.0579 -0.0574,-0.0578 -0.0318,-1.2e-4 -0.0575,0.026 -0.0574,0.0578 v 0.21517 l -0.21068,0.15331 0.10131,-0.31424 -0.26762,-0.19544 h 0.33217 z m 4.5e-4,0.2824 a 0.05737768,0.05737768 0 0 0 -0.0574,0.0574 0.05737768,0.05737768 0 0 0 0.0574,0.0574 0.05737768,0.05737768 0 0 0 0.0574,-0.0574 0.05737768,0.05737768 0 0 0 -0.0574,-0.0574 z"
         transform="matrix(1.1528146,0,0,1.1528146,-57.949126,-24.747941)" />
    </g>
    <g
       id="g126">
      <circle
         style="fill:#1a1a1a;fill-rule:evenodd;stroke-width:0.529167;stroke-linecap:round;stroke-linejoin:round;stroke-miterlimit:7.3;stroke-opacity:0.992157;paint-order:stroke fill markers"
         id="circle34"
         cx="381.66144"
         cy="163.38022"
         r="1.190625" />
      <path
         id="path66"
         style="color:#000000;fill:#f9f9f9;fill-opacity:0.992157;fill-rule:evenodd;stroke-linecap:round;stroke-linejoin:round;stroke-miterlimit:7.3;-inkscape-stroke:none;paint-order:stroke fill markers"
         d="m 381.66249,162.71927 c -0.365,0 -0.66198,0.29697 -0.66198,0.66197 0,0.365 0.29698,0.65991 0.66198,0.65991 0.365,0 0.65991,-0.29491 0.65991,-0.65991 0,-0.365 -0.29491,-0.66197 -0.65991,-0.66197 z m -5.2e-4,0.0264 a 0.63500398,0.63500398 0 0 1 0.63459,0.6351 0.63500398,0.63500398 0 0 1 -0.63459,0.63459 0.63500398,0.63500398 0 0 1 -0.6351,-0.63459 0.63500398,0.63500398 0 0 1 0.6351,-0.6351 z m -5.2e-4,0.17157 c -0.25494,0 -0.46302,0.20808 -0.46302,0.46302 0,0.25494 0.20808,0.46302 0.46302,0.46302 0.25494,0 0.46303,-0.20808 0.46303,-0.46302 0,-0.25494 -0.20809,-0.46302 -0.46303,-0.46302 z m -5.1e-4,0.0656 a 0.39687902,0.39687902 0 0 1 0.39687,0.39688 0.39687902,0.39687902 0 0 1 -0.39687,0.39687 0.39687902,0.39687902 0 0 1 -0.39688,-0.39687 0.39687902,0.39687902 0 0 1 0.39688,-0.39688 z m 5.1e-4,0.19896 a 0.19843751,0.19843751 0 0 0 -0.19843,0.19844 0.19843751,0.19843751 0 0 0 0.19843,0.19843 0.19843751,0.19843751 0 0 0 0.19844,-0.19843 0.19843751,0.19843751 0 0 0 -0.19844,-0.19844 z m 0,0.13229 a 0.06614583,0.06614583 0 0 1 0.0661,0.0661 0.06614583,0.06614583 0 0 1 -0.0661,0.0661 0.06614583,0.06614583 0 0 1 -0.0661,-0.0661 0.06614583,0.06614583 0 0 1 0.0661,-0.0661 z" />
    </g>
    <g
       id="g110">
      <circle
         style="fill:#1a1a1a;fill-rule:evenodd;stroke-width:0.529167;stroke-linecap:round;stroke-linejoin:round;stroke-miterlimit:7.3;stroke-opacity:0.992157;paint-order:stroke fill markers"
         id="circle43"
         cx="379.01559"
         cy="169.99478"
         r="1.190625" />
      <path
         id="path51"
         style="color:#000000;fill:#f9f9f9;fill-opacity:0.992157;fill-rule:evenodd;stroke-linecap:round;stroke-linejoin:round;stroke-miterlimit:7.3;-inkscape-stroke:none;paint-order:stroke fill markers"
         d="m 378.61926,169.45322 a 0.02646099,0.02646099 0 0 0 -0.0274,0.0253 v 0.26562 a 0.02646099,0.02646099 0 0 0 0.0274,0.0253 h 0.79272 a 0.02646099,0.02646099 0 0 0 0.0274,-0.0253 v -0.26562 a 0.02646099,0.02646099 0 0 0 -0.0274,-0.0253 z m 0.0253,0.0527 h 0.74208 v 0.21084 h -0.74208 z m -0.0258,0.37 v 0.1323 h 0.19843 v -0.1323 z m 0.29765,0 v 0.1323 h 0.19844 v -0.1323 z m 0.29766,0 v 0.1323 h 0.19844 v -0.1323 z m -0.59531,0.26459 v 0.13229 h 0.19843 v -0.13229 z m 0.29765,0 v 0.13229 h 0.19844 v -0.13229 z m 0.29766,0 v 0.13229 h 0.19844 v -0.13229 z m -0.59531,0.26458 v 0.13229 h 0.19843 v -0.13229 z m 0.29765,0 v 0.13229 h 0.19844 v -0.13229 z m 0.29766,0 v 0.13229 h 0.19844 v -0.13229 z" />
    </g>
    <g
       id="g111">
      <circle
         style="fill:#1a1a1a;fill-rule:evenodd;stroke-width:0.529167;stroke-linecap:round;stroke-linejoin:round;stroke-miterlimit:7.3;stroke-opacity:0.992157;paint-order:stroke fill markers"
         id="circle44"
         cx="381.66144"
         cy="169.99478"
         r="1.190625" />
      <path
         id="path70"
         style="fill:#f9f9f9;fill-rule:evenodd;stroke:none;stroke-width:0.0529167;stroke-linecap:round;stroke-linejoin:round;stroke-miterlimit:7.3;stroke-dasharray:none;stroke-opacity:0.992157;paint-order:stroke fill markers"
         d="M 381.66145,169.33333 381,169.59791 h 1.32291 z m -0.33072,0.29766 v 0.66146 h 0.13229 v -0.66146 z m 0.26458,0 v 0.66146 h 0.13229 v -0.66146 z m 0.26458,0 v 0.66146 h 0.13229 v -0.66146 z m -0.66146,0.69453 v 0.13229 h 0.92605 v -0.13229 z M 381,170.52396 v 0.13229 h 1.32291 v -0.13229 z" />
    </g>
    <g
       id="g112">
      <circle
         style="fill:#1a1a1a;fill-rule:evenodd;stroke-width:0.529167;stroke-linecap:round;stroke-linejoin:round;stroke-miterlimit:7.3;stroke-opacity:0.992157;paint-order:stroke fill markers"
         id="circle45"
         cx="384.30728"
         cy="169.99478"
         r="1.190625" />
      <path
         id="circle82"
         style="fill:#f9f9f9;fill-rule:evenodd;stroke-width:0.529166;stroke-linecap:round;stroke-linejoin:round;stroke-miterlimit:7.3;stroke-opacity:0.992157;paint-order:stroke fill markers"
         d="m 384.31452,169.30646 c -0.24421,-0.003 -0.47715,0.12519 -0.60358,0.34416 -0.15561,0.26953 -0.11051,0.60986 0.10956,0.82993 0.22007,0.22007 0.56039,0.26466 0.82992,0.10904 0.26953,-0.15561 0.40301,-0.47246 0.32246,-0.77308 a 0.02645835,0.02645835 0 0 0 -0.0336,-0.0176 0.02645835,0.02645835 0 0 0 -0.0191,0.031 c 0.0744,0.27773 -0.046,0.57093 -0.29507,0.71469 -0.24901,0.14377 -0.56408,0.10202 -0.7674,-0.10129 -0.20331,-0.20331 -0.2435,-0.51683 -0.0997,-0.76584 0.14377,-0.249 0.43489,-0.37105 0.71262,-0.29663 a 0.02645835,0.02645835 0 0 0 0.0336,-0.0176 0.02645835,0.02645835 0 0 0 -0.0196,-0.0331 c -0.0564,-0.0151 -0.11366,-0.0231 -0.17002,-0.0238 z m 0.4961,0.0274 a 0.02645835,0.02645835 0 0 0 -0.0274,0.0253 v 0.10542 h -0.10542 a 0.02645835,0.02645835 0 0 0 -0.0274,0.0274 0.02645835,0.02645835 0 0 0 0.0274,0.0253 h 0.10542 v 0.10749 a 0.02645835,0.02645835 0 0 0 0.0274,0.0258 0.02645835,0.02645835 0 0 0 0.0253,-0.0258 v -0.10749 h 0.10542 a 0.02645835,0.02645835 0 0 0 0.0274,-0.0253 0.02645835,0.02645835 0 0 0 -0.0274,-0.0274 h -0.10542 v -0.10542 a 0.02645835,0.02645835 0 0 0 -0.0253,-0.0253 z m -0.50333,0.26406 a 0.1984375,0.1984375 0 0 0 -0.19844,0.19844 0.1984375,0.1984375 0 0 0 0.19844,0.19844 0.1984375,0.1984375 0 0 0 0.19844,-0.19844 0.1984375,0.1984375 0 0 0 -0.19844,-0.19844 z m 0,0.39688 a 0.39687499,0.39687499 0 0 0 -0.19844,0.0532 0.39687499,0.39687499 0 0 0 -0.19844,0.34364 h 0.79375 a 0.39687499,0.39687499 0 0 0 -0.19843,-0.34364 0.39687499,0.39687499 0 0 0 -0.19844,-0.0532 z" />
    </g>
    <g
       id="g118">
      <circle
         style="fill:#1a1a1a;fill-rule:evenodd;stroke-width:0.529167;stroke-linecap:round;stroke-linejoin:round;stroke-miterlimit:7.3;stroke-opacity:0.992157;paint-order:stroke fill markers"
         id="circle46"
         cx="379.01559"
         cy="172.64061"
         r="1.190625" />
      <path
         id="circle86"
         style="fill:#f9f9f9;fill-rule:evenodd;stroke-width:0.529166;stroke-linecap:round;stroke-linejoin:round;stroke-miterlimit:7.3;stroke-opacity:0.992157;paint-order:stroke fill markers"
         d="m 378.99547,171.95333 c -0.23387,0.007 -0.45411,0.13309 -0.57568,0.34365 -0.15561,0.26952 -0.11051,0.60985 0.10956,0.82992 0.22007,0.22007 0.5604,0.26516 0.82992,0.10955 0.26953,-0.15561 0.40094,-0.47297 0.32039,-0.77359 a 0.02645835,0.02645835 0 0 0 -0.031,-0.0196 0.02645835,0.02645835 0 0 0 -0.0196,0.0336 c 0.0744,0.27773 -0.046,0.57091 -0.29507,0.71468 -0.249,0.14376 -0.56409,0.10152 -0.7674,-0.1018 -0.20332,-0.20331 -0.24556,-0.51839 -0.1018,-0.76739 0.14377,-0.24901 0.43747,-0.36949 0.7152,-0.29508 a 0.02645835,0.02645835 0 0 0 0.0331,-0.0191 0.02645835,0.02645835 0 0 0 -0.0196,-0.0315 c -0.0658,-0.0176 -0.13244,-0.0251 -0.19792,-0.0233 z m 0.39119,0.15813 a 0.02645835,0.02645835 0 0 0 -0.0274,0.0274 0.02645835,0.02645835 0 0 0 0.0274,0.0253 h 0.26355 a 0.02645835,0.02645835 0 0 0 0.0274,-0.0253 0.02645835,0.02645835 0 0 0 -0.0274,-0.0274 z m -0.37104,0.13229 a 0.1984375,0.1984375 0 0 0 -0.19844,0.19844 0.1984375,0.1984375 0 0 0 0.19844,0.19843 0.1984375,0.1984375 0 0 0 0.19844,-0.19843 0.1984375,0.1984375 0 0 0 -0.19844,-0.19844 z m 0,0.39687 a 0.39687499,0.39687499 0 0 0 -0.19844,0.0532 0.39687499,0.39687499 0 0 0 -0.19843,0.34365 h 0.79375 a 0.39687499,0.39687499 0 0 0 -0.19844,-0.34365 0.39687499,0.39687499 0 0 0 -0.19844,-0.0532 z" />
    </g>
    <g
       id="g115">
      <circle
         style="fill:#1a1a1a;fill-rule:evenodd;stroke-width:0.529167;stroke-linecap:round;stroke-linejoin:round;stroke-miterlimit:7.3;stroke-opacity:0.992157;paint-order:stroke fill markers"
         id="circle47"
         cx="381.66144"
         cy="172.64061"
         r="1.190625" />
      <path
         id="text90"
         style="font-weight:600;font-size:1.23417px;line-height:1.05;font-family:Inter;-inkscape-font-specification:'Inter Semi-Bold';letter-spacing:0.115704px;word-spacing:0px;fill:#f9f9f9;fill-rule:evenodd;stroke-width:0.0529167;stroke-linecap:round;stroke-linejoin:round;stroke-miterlimit:7.3;stroke-opacity:0.992157;paint-order:stroke fill markers"
         d="m 383.14324,171.32614 v 0.1014 c -0.0468,0.004 -0.0899,0.0146 -0.12866,0.0319 -0.0497,0.0219 -0.0888,0.0529 -0.11777,0.0926 -0.0287,0.0397 -0.0431,0.0861 -0.0431,0.13897 0,0.0643 0.0217,0.11555 0.0643,0.15442 0.043,0.0385 0.10092,0.0675 0.17484,0.0865 l 0.0503,0.0129 v 0.26405 c -0.0206,-0.002 -0.0402,-0.007 -0.0581,-0.0134 -0.0272,-0.0103 -0.049,-0.0261 -0.0659,-0.0468 -0.0166,-0.0207 -0.0264,-0.0465 -0.0291,-0.0777 h -0.15979 c 0.002,0.0596 0.0176,0.10986 0.0462,0.15133 0.0289,0.0415 0.0692,0.0731 0.12037,0.0947 0.0425,0.0178 0.0913,0.0283 0.1463,0.0314 v 0.0999 h 0.0721 v -0.0999 c 0.0562,-0.003 0.10513,-0.0136 0.14682,-0.0319 0.0509,-0.0225 0.0899,-0.054 0.11674,-0.0937 0.0269,-0.04 0.0405,-0.0864 0.0405,-0.13897 0,-0.0389 -0.007,-0.0725 -0.0218,-0.1014 -0.0146,-0.0289 -0.0345,-0.0537 -0.0597,-0.0741 -0.0249,-0.0204 -0.053,-0.0375 -0.0846,-0.051 -0.0313,-0.0135 -0.0642,-0.024 -0.0981,-0.0319 l -0.04,-0.01 V 171.566 h 5.2e-4 c 0.0328,0.004 0.0605,0.0139 0.083,0.0299 0.0305,0.0213 0.0479,0.0513 0.0519,0.0896 l 0.15616,-5.1e-4 c -8.6e-4,-0.0505 -0.0151,-0.095 -0.0425,-0.13383 -0.0275,-0.0391 -0.0654,-0.0697 -0.11362,-0.0916 -0.0398,-0.0184 -0.0848,-0.0293 -0.13541,-0.0324 v -0.10089 z m 0,0.24038 v 0.2306 c -0.009,-0.003 -0.0175,-0.005 -0.0265,-0.009 -0.0181,-0.006 -0.0349,-0.0143 -0.0498,-0.0237 -0.0149,-0.01 -0.0265,-0.0218 -0.0353,-0.0355 -0.008,-0.0137 -0.013,-0.0297 -0.013,-0.0484 2.7e-4,-0.0225 0.007,-0.0427 0.0197,-0.0602 0.0129,-0.0175 0.0318,-0.0315 0.056,-0.0417 0.0145,-0.006 0.0308,-0.01 0.0488,-0.0123 z m 0.0721,0.39685 c 0.0238,0.007 0.0456,0.0144 0.0643,0.0226 0.0242,0.0103 0.0426,0.0231 0.056,0.0386 0.0135,0.0152 0.0205,0.0348 0.0208,0.0582 -2.7e-4,0.0257 -0.008,0.0482 -0.0233,0.0674 -0.0152,0.019 -0.0359,0.034 -0.0628,0.0448 -0.0165,0.007 -0.0351,0.0104 -0.055,0.0129 z m -0.50532,0.52244 v 0.13177 h 0.92971 v -0.13177 z"
         transform="scale(0.99605027,1.0039654)" />
    </g>
    <g
       id="g113">
      <circle
         style="fill:#1a1a1a;fill-rule:evenodd;stroke-width:0.529167;stroke-linecap:round;stroke-linejoin:round;stroke-miterlimit:7.3;stroke-opacity:0.992157;paint-order:stroke fill markers"
         id="circle48"
         cx="384.30728"
         cy="172.64061"
         r="1.190625" />
      <path
         id="path92"
         style="fill:#f9f9f9;fill-rule:evenodd;stroke:none;stroke-width:0.132292;stroke-linecap:round;stroke-linejoin:round;stroke-miterlimit:7.3;stroke-dasharray:none;stroke-opacity:0.992157;paint-order:stroke fill markers"
         d="m 383.98948,172.0851 v 0.52917 h 0.63562 v -0.52917 z m -0.34365,0.58188 v 0.52916 h 0.6351 v -0.52916 z m 0.68781,0 v 0.52916 h 0.63511 v -0.52916 z" />
    </g>
    <g
       id="g117">
      <circle
         style="fill:#1a1a1a;fill-rule:evenodd;stroke-width:0.529167;stroke-linecap:round;stroke-linejoin:round;stroke-miterlimit:7.3;stroke-opacity:0.992157;paint-order:stroke fill markers"
         id="circle49"
         cx="379.01559"
         cy="175.28647"
         r="1.190625" />
      <path
         id="path94"
         style="fill:#f9f9f9;fill-rule:evenodd;stroke:none;stroke-width:0.132292;stroke-linecap:round;stroke-linejoin:round;stroke-miterlimit:7.3;stroke-dasharray:none;stroke-opacity:0.992157;paint-order:stroke fill markers"
         d="m 379.01562,174.625 -0.66146,0.26355 v 0.14211 l 0.0248,-0.009 0.63665,-0.2558 0.63665,0.2558 0.0248,0.009 v -0.14211 z m -0.19068,0.39171 v 0.31729 h 0.38137 v -0.31729 z m -0.20619,0.34933 v 0.31729 h 0.38085 v -0.31729 z m 0.41289,0 v 0.31729 h 0.38086 v -0.31729 z m -0.67748,0.44958 v 0.13229 h 1.32292 v -0.13229 z" />
    </g>
    <g
       id="g116">
      <circle
         style="fill:#1a1a1a;fill-rule:evenodd;stroke-width:0.529167;stroke-linecap:round;stroke-linejoin:round;stroke-miterlimit:7.3;stroke-opacity:0.992157;paint-order:stroke fill markers"
         id="circle50"
         cx="381.66144"
         cy="175.28647"
         r="1.190625" />
      <path
         id="rect101"
         style="fill:#f9f9f9;fill-rule:evenodd;stroke:none;stroke-width:0.132292;stroke-linecap:square;stroke-linejoin:miter;stroke-miterlimit:7.3;stroke-dasharray:none;stroke-opacity:0.992157;paint-order:stroke fill markers"
         d="m 381.42323,174.69114 v 0.72864 h 0.1726 v 0.3297 h 0.1328 v -0.79479 -0.0641 h 0.17105 v -0.19948 z m 0.37052,0.26459 v 0.79375 h 0.47645 v -0.79375 z m -0.74104,0.52916 v 0.26459 h 0.47645 v -0.26459 z M 381,175.81562 v 0.13229 h 1.32291 v -0.13229 z" />
    </g>
    <g
       id="g114">
      <circle
         style="fill:#1a1a1a;fill-rule:evenodd;stroke-width:0.529167;stroke-linecap:round;stroke-linejoin:round;stroke-miterlimit:7.3;stroke-opacity:0.992157;paint-order:stroke fill markers"
         id="circle51"
         cx="384.30728"
         cy="175.28647"
         r="1.190625" />
      <path
         id="rect105"
         style="fill:url(#linearGradient110);fill-rule:evenodd;stroke:none;stroke-width:0.132292;stroke-linecap:square;stroke-linejoin:miter;stroke-miterlimit:7.3;stroke-dasharray:none;stroke-opacity:0.992157;paint-order:stroke fill markers"
         d="m 383.64583,174.625 v 1.32291 h 0.26458 V 174.625 Z m 0.35295,0 v 1.32291 h 0.26458 V 174.625 Z m 0.35243,0 v 1.32291 h 0.26459 V 174.625 Z m 0.35295,0 v 1.32291 h 0.26459 V 174.625 Z" />
    </g>
    <g
       id="g11"
       transform="translate(-3.9687598)">
      <circle
         style="fill:#1a1a1a;fill-rule:evenodd;stroke-width:0.529167;stroke-linecap:round;stroke-linejoin:round;stroke-miterlimit:7.3;stroke-opacity:0.992157;paint-order:stroke fill markers"
         id="circle2"
         cx="390.92184"
         cy="172.64061"
         r="1.190625" />
      <path
         id="path6"
         style="font-weight:600;font-size:1.23417px;line-height:1.05;font-family:Inter;-inkscape-font-specification:'Inter Semi-Bold';letter-spacing:0.115704px;word-spacing:0px;fill:#f9f9f9;fill-rule:evenodd;stroke-width:0.0529167;stroke-linecap:round;stroke-linejoin:round;stroke-miterlimit:7.3;stroke-opacity:0.992157;paint-order:stroke fill markers"
         d="m 390.26041,172.07735 v 0.13229 h 0.52917 v -0.13229 z m 0.96118,0 v 0.1018 c -0.0466,0.004 -0.0896,0.0147 -0.12815,0.032 -0.0495,0.022 -0.0885,0.0531 -0.11731,0.093 -0.0286,0.0399 -0.0429,0.0864 -0.0429,0.13953 0,0.0646 0.0216,0.116 0.0641,0.15503 0.0428,0.0386 0.10052,0.0678 0.17415,0.0868 l 0.0501,0.0129 v 0.2651 c -0.0205,-0.002 -0.04,-0.007 -0.0579,-0.0134 -0.0271,-0.0103 -0.0488,-0.0262 -0.0656,-0.047 -0.0165,-0.0208 -0.0262,-0.0467 -0.0289,-0.078 h -0.15916 c 0.002,0.0598 0.0175,0.1103 0.046,0.15193 0.0288,0.0417 0.0689,0.0734 0.11989,0.0951 0.0423,0.0179 0.0909,0.0284 0.14572,0.0315 v 0.10026 h 0.0718 v -0.10026 c 0.056,-0.003 0.10473,-0.0136 0.14625,-0.032 0.0507,-0.0226 0.0895,-0.0541 0.11627,-0.094 0.0268,-0.0402 0.0403,-0.0867 0.0403,-0.13952 0,-0.0391 -0.007,-0.0728 -0.0217,-0.10181 -0.0145,-0.029 -0.0343,-0.0539 -0.0594,-0.0744 -0.0248,-0.0205 -0.0527,-0.0377 -0.0842,-0.0512 -0.0312,-0.0135 -0.0639,-0.0241 -0.0977,-0.032 l -0.0403,-0.0103 v -0.25012 h 5.1e-4 c 0.0327,0.004 0.0603,0.0139 0.0827,0.03 0.0304,0.0214 0.0477,0.0515 0.0517,0.0899 l 0.15555,-5.2e-4 c -8.5e-4,-0.0507 -0.0146,-0.0954 -0.0419,-0.13435 -0.0274,-0.0393 -0.0651,-0.07 -0.11317,-0.092 -0.0396,-0.0185 -0.0845,-0.0293 -0.13488,-0.0325 v -0.10129 z m -0.96118,0.19895 v 0.1323 h 0.52917 v -0.1323 z m 0.96118,0.0419 v 5.2e-4 0.23151 c -0.009,-0.003 -0.0173,-0.005 -0.0263,-0.009 -0.018,-0.006 -0.0348,-0.0144 -0.0496,-0.0238 -0.0148,-0.01 -0.0263,-0.0225 -0.0351,-0.0362 -0.008,-0.0137 -0.0129,-0.0298 -0.0129,-0.0486 2.7e-4,-0.0226 0.007,-0.043 0.0196,-0.0605 0.0129,-0.0176 0.0317,-0.0316 0.0558,-0.0419 0.0144,-0.006 0.0307,-0.0101 0.0486,-0.0124 z m -0.96118,0.1571 v 0.13229 h 0.52917 v -0.13229 z m 0,0.19844 v 0.13229 h 0.52917 v -0.13229 z m 1.03301,0.0434 c 0.0237,0.007 0.0454,0.0145 0.0641,0.0227 0.0241,0.0103 0.0424,0.0232 0.0558,0.0388 0.0134,0.0153 0.0204,0.0349 0.0207,0.0584 -2.7e-4,0.0258 -0.008,0.0484 -0.0233,0.0677 -0.0151,0.0191 -0.0358,0.0341 -0.0625,0.045 -0.0164,0.007 -0.035,0.0104 -0.0548,0.0129 z m -1.03301,0.15555 v 0.13229 h 0.52917 v -0.13229 z m 0,0.19895 v 0.1323 h 0.52917 v -0.1323 z" />
    </g>
    <circle
       style="fill:#1a1a1a;fill-rule:evenodd;stroke-width:0.529167;stroke-linecap:round;stroke-linejoin:round;stroke-miterlimit:7.3;stroke-opacity:0.992157;paint-order:stroke fill markers"
       id="circle3"
       cx="396.21353"
       cy="172.64061"
       r="1.190625" />
    <path
       id="path47"
       style="fill:#f9f9f9;fill-rule:evenodd;stroke-width:0.529166;stroke-linecap:round;stroke-linejoin:round;stroke-miterlimit:7.3;stroke-opacity:0.992157;paint-order:stroke fill markers"
       d="m 396.08075,171.96625 c -0.2737,0.0532 -0.48962,0.26857 -0.54312,0.54208 h 0.0537 c 0.0518,-0.24475 0.24443,-0.43681 0.48938,-0.48834 z m 0.26458,0 v 0.0537 c 0.24443,0.0519 0.43616,0.24392 0.48782,0.48834 h 0.0558 c -0.0536,-0.27326 -0.27009,-0.48853 -0.54363,-0.54208 z m -0.13229,0.2775 a 0.1984375,0.1984375 0 0 0 -0.19844,0.19844 0.1984375,0.1984375 0 0 0 0.19844,0.19843 0.1984375,0.1984375 0 0 0 0.19843,-0.19843 0.1984375,0.1984375 0 0 0 -0.19843,-0.19844 z m 0,0.39687 a 0.39687499,0.39687499 0 0 0 -0.19844,0.0532 0.39687499,0.39687499 0 0 0 -0.0377,0.0269 v 0.12506 h 0.14572 v -0.12971 h 0.062 v 0.32143 h 0.0904 v -0.32143 h 0.14211 c 0.0125,0 0.0244,0.002 0.0351,0.006 a 0.39687499,0.39687499 0 0 0 -0.0408,-0.0284 0.39687499,0.39687499 0 0 0 -0.19843,-0.0532 z m 0.12454,0.13023 v 0.10438 h 0.0786 c 0.008,0 0.0146,-0.003 0.0207,-0.007 0.006,-0.005 0.0108,-0.0111 0.0145,-0.0191 0.003,-0.008 0.005,-0.0162 0.005,-0.0258 0,-0.0103 -0.002,-0.0193 -0.006,-0.0269 -0.004,-0.008 -0.009,-0.0141 -0.016,-0.0186 -0.006,-0.005 -0.0133,-0.007 -0.0212,-0.007 z m 0.16898,0.001 c 0.002,0.004 0.004,0.008 0.005,0.0119 0.005,0.0127 0.008,0.026 0.008,0.0393 0,0.0136 -0.003,0.0266 -0.007,0.0393 -0.005,0.0123 -0.011,0.0231 -0.0196,0.0325 -0.009,0.009 -0.0192,0.0166 -0.031,0.0217 l 0.0734,0.12092 h 0.0744 a 0.39687499,0.39687499 0 0 0 -0.10335,-0.26562 z m -0.96893,0.001 c 0.0535,0.2735 0.26942,0.4889 0.54312,0.54209 v -0.0537 c -0.24495,-0.0515 -0.43755,-0.24361 -0.48938,-0.48835 z m 1.29552,0 c -0.0517,0.24442 -0.24339,0.43648 -0.48782,0.48835 v 0.0537 c 0.27354,-0.0536 0.48999,-0.26883 0.54363,-0.54209 z m -0.9188,0.004 a 0.39687499,0.39687499 0 0 0 -0.0982,0.26045 h 0.0982 z m 0.0625,0.12351 v 0.13694 h 0.14572 v -0.13694 z m 0.36121,0.0289 v 0.10801 h 0.12868 l -0.0661,-0.10801 z" />
    <circle
       style="fill:#1a1a1a;fill-rule:evenodd;stroke-width:0.529167;stroke-linecap:round;stroke-linejoin:round;stroke-miterlimit:7.3;stroke-opacity:0.992157;paint-order:stroke fill markers"
       id="circle52"
       cx="398.85934"
       cy="172.64061"
       r="1.190625" />
    <path
       style="fill:none;fill-rule:evenodd;stroke:#ffffff;stroke-width:0.0529167;stroke-linecap:round;stroke-linejoin:round;stroke-miterlimit:7.3;stroke-dasharray:0.0529167, 0.105833;stroke-dashoffset:0;stroke-opacity:0.992157;paint-order:stroke fill markers"
       d="m 398.72708,172.1379 h 0.79375"
       id="path55" />
    <path
       style="fill:none;fill-rule:evenodd;stroke:#ffffff;stroke-width:0.0529167;stroke-linecap:round;stroke-linejoin:round;stroke-miterlimit:7.3;stroke-dasharray:0.0529167, 0.105833;stroke-dashoffset:0;stroke-opacity:0.992157;paint-order:stroke fill markers"
       d="m 398.72708,173.14332 h 0.79375"
       id="path56" />
    <path
       style="fill:none;fill-rule:evenodd;stroke:#ffffff;stroke-width:0.0529167;stroke-linecap:round;stroke-linejoin:round;stroke-miterlimit:7.3;stroke-dasharray:none;stroke-dashoffset:0;stroke-opacity:0.992157;paint-order:stroke fill markers"
       d="m 398.22436,172.1379 0.13226,0.1323 0.13232,-0.26459"
       id="path57" />
    <path
       style="fill:none;fill-rule:evenodd;stroke:#ffffff;stroke-width:0.0529167;stroke-linecap:round;stroke-linejoin:round;stroke-miterlimit:7.3;stroke-dasharray:none;stroke-dashoffset:0;stroke-opacity:0.992157;paint-order:stroke fill markers"
       d="m 398.22436,173.14332 0.13226,0.1323 0.13232,-0.26459"
       id="path58" />
    <path
       style="fill:none;fill-rule:evenodd;stroke:#ffffff;stroke-width:0.0529167;stroke-linecap:round;stroke-linejoin:round;stroke-miterlimit:7.3;stroke-dasharray:none;stroke-dashoffset:0;stroke-opacity:0.992157;paint-order:stroke fill markers"
       d="m 398.22436,172.64061 0.13226,0.1323 0.13232,-0.26459"
       id="path59" />
    <path
       style="fill:none;fill-rule:evenodd;stroke:#ffffff;stroke-width:0.0529167;stroke-linecap:round;stroke-linejoin:round;stroke-miterlimit:7.3;stroke-dasharray:0.0529167, 0.105833;stroke-dashoffset:0;stroke-opacity:0.992157;paint-order:stroke fill markers"
       d="m 398.72708,172.64061 h 0.79375"
       id="path60" />
    <circle
       style="fill:#1a1a1a;fill-rule:evenodd;stroke-width:0.529167;stroke-linecap:round;stroke-linejoin:round;stroke-miterlimit:7.3;stroke-opacity:0.992157;paint-order:stroke fill markers"
       id="circle60"
       cx="401.50519"
       cy="172.64061"
       r="1.190625" />
    <path
       style="fill:#f9f9f9;fill-rule:evenodd;stroke-width:0.529166;stroke-linecap:round;stroke-linejoin:round;stroke-miterlimit:7.3;stroke-opacity:0.992157;paint-order:stroke fill markers"
       d="m 392.99719,165.36461 c -0.0517,0.24442 -0.2434,0.43647 -0.48783,0.48834 v 0.0537 c 0.27354,-0.0536 0.49,-0.26882 0.54364,-0.54208 z"
       id="path67" />
    <path
       style="fill:#f9f9f9;fill-rule:evenodd;stroke-width:0.529166;stroke-linecap:round;stroke-linejoin:round;stroke-miterlimit:7.3;stroke-opacity:0.992157;paint-order:stroke fill markers"
       d="m 391.70166,165.36461 c 0.0535,0.2735 0.26942,0.48889 0.54312,0.54208 v -0.0537 c -0.24495,-0.0515 -0.43755,-0.2436 -0.48938,-0.48834 z"
       id="path65" />
    <g
       id="g76"
       transform="translate(0,0.05718638)">
      <path
         style="fill:#f9f9f9;fill-rule:evenodd;stroke-width:0.529167;stroke-linecap:round;stroke-linejoin:round;stroke-miterlimit:7.3;stroke-opacity:0.992157;paint-order:stroke fill markers"
         d="m 392.37707,164.75172 a 0.19843749,0.19843749 0 0 0 -0.0993,0.0265 0.19843749,0.19843749 0 0 0 -0.0993,0.17183 h 0.39687 a 0.19843749,0.19843749 0 0 0 -0.0993,-0.17183 0.19843749,0.19843749 0 0 0 -0.0993,-0.0265 z"
         id="path64" />
      <path
         style="fill:#f9f9f9;fill-rule:evenodd;stroke-width:0.529167;stroke-linecap:round;stroke-linejoin:round;stroke-miterlimit:7.3;stroke-opacity:0.992157;paint-order:stroke fill markers"
         d="m 392.37707,164.55328 a 0.09921875,0.09921875 0 0 0 -0.0993,0.0993 0.09921875,0.09921875 0 0 0 0.0993,0.0993 0.09921875,0.09921875 0 0 0 0.0993,-0.0993 0.09921875,0.09921875 0 0 0 -0.0993,-0.0993 z"
         id="path63" />
    </g>
    <path
       style="fill:#f9f9f9;fill-rule:evenodd;stroke-width:0.529166;stroke-linecap:round;stroke-linejoin:round;stroke-miterlimit:7.3;stroke-opacity:0.992157;paint-order:stroke fill markers"
       d="m 392.50936,164.55794 v 0.0537 c 0.24443,0.0519 0.43617,0.24392 0.48783,0.48834 h 0.0558 c -0.0536,-0.27326 -0.2701,-0.48853 -0.54364,-0.54208 z"
       id="path62" />
    <path
       style="fill:#f9f9f9;fill-rule:evenodd;stroke-width:0.529166;stroke-linecap:round;stroke-linejoin:round;stroke-miterlimit:7.3;stroke-opacity:0.992157;paint-order:stroke fill markers"
       d="m 392.24478,164.55794 c -0.2737,0.0532 -0.48962,0.26857 -0.54312,0.54208 h 0.0537 c 0.0518,-0.24475 0.24443,-0.43681 0.48938,-0.48834 z"
       id="path61" />
    <g
       id="g72"
       transform="matrix(1.4996221,0,0,1.4996221,-196.36862,-82.520532)"
       style="stroke-width:0.666835">
      <path
         style="fill:#f9f9f9;fill-rule:evenodd;stroke-width:0.352867;stroke-linecap:round;stroke-linejoin:round;stroke-miterlimit:7.3;stroke-opacity:0.992157;paint-order:stroke fill markers"
         d="m 392.8773,165.16611 a 0.132325,0.132325 0 0 0 -0.0662,0.0177 0.132325,0.132325 0 0 0 -0.0662,0.11458 h 0.26465 a 0.132325,0.132325 0 0 0 -0.0662,-0.11458 0.132325,0.132325 0 0 0 -0.0662,-0.0177 z"
         id="path71" />
      <path
         style="fill:#f9f9f9;fill-rule:evenodd;stroke-width:0.352867;stroke-linecap:round;stroke-linejoin:round;stroke-miterlimit:7.3;stroke-opacity:0.992157;paint-order:stroke fill markers"
         d="m 392.8773,165.03378 a 0.0661625,0.0661625 0 0 0 -0.0662,0.0662 0.0661625,0.0661625 0 0 0 0.0662,0.0662 0.0661625,0.0661625 0 0 0 0.0662,-0.0662 0.0661625,0.0661625 0 0 0 -0.0662,-0.0662 z"
         id="path72" />
    </g>
    <g
       id="g75"
       transform="matrix(1.4996221,0,0,1.4996221,-197.21353,-82.520532)"
       style="stroke-width:0.666835">
      <path
         style="fill:#f9f9f9;fill-rule:evenodd;stroke-width:0.352867;stroke-linecap:round;stroke-linejoin:round;stroke-miterlimit:7.3;stroke-opacity:0.992157;paint-order:stroke fill markers"
         d="m 392.8773,165.16611 a 0.132325,0.132325 0 0 0 -0.0662,0.0177 0.132325,0.132325 0 0 0 -0.0662,0.11458 h 0.26465 a 0.132325,0.132325 0 0 0 -0.0662,-0.11458 0.132325,0.132325 0 0 0 -0.0662,-0.0177 z"
         id="path74" />
      <path
         style="fill:#f9f9f9;fill-rule:evenodd;stroke-width:0.352867;stroke-linecap:round;stroke-linejoin:round;stroke-miterlimit:7.3;stroke-opacity:0.992157;paint-order:stroke fill markers"
         d="m 392.8773,165.03378 a 0.0661625,0.0661625 0 0 0 -0.0662,0.0662 0.0661625,0.0661625 0 0 0 0.0662,0.0662 0.0661625,0.0661625 0 0 0 0.0662,-0.0662 0.0661625,0.0661625 0 0 0 -0.0662,-0.0662 z"
         id="path75" />
    </g>
    <g
       id="g77"
       transform="translate(0,0.87743633)">
      <path
         style="fill:#f9f9f9;fill-rule:evenodd;stroke-width:0.529167;stroke-linecap:round;stroke-linejoin:round;stroke-miterlimit:7.3;stroke-opacity:0.992157;paint-order:stroke fill markers"
         d="m 392.37707,164.75172 a 0.19843749,0.19843749 0 0 0 -0.0993,0.0265 0.19843749,0.19843749 0 0 0 -0.0993,0.17183 h 0.39687 a 0.19843749,0.19843749 0 0 0 -0.0993,-0.17183 0.19843749,0.19843749 0 0 0 -0.0993,-0.0265 z"
         id="path76" />
      <path
         style="fill:#f9f9f9;fill-rule:evenodd;stroke-width:0.529167;stroke-linecap:round;stroke-linejoin:round;stroke-miterlimit:7.3;stroke-opacity:0.992157;paint-order:stroke fill markers"
         d="m 392.37707,164.55328 a 0.09921875,0.09921875 0 0 0 -0.0993,0.0993 0.09921875,0.09921875 0 0 0 0.0993,0.0993 0.09921875,0.09921875 0 0 0 0.0993,-0.0993 0.09921875,0.09921875 0 0 0 -0.0993,-0.0993 z"
         id="path77" />
    </g>
    <path
       id="path78"
       style="fill:#f9f9f9;fill-rule:evenodd;stroke-width:0.529166;stroke-linecap:round;stroke-linejoin:round;stroke-miterlimit:7.3;stroke-opacity:0.992157;paint-order:stroke fill markers"
       d="m 401.37264,171.96623 c -0.2737,0.0532 -0.48962,0.26858 -0.54312,0.54209 h 0.0537 c 0.0518,-0.24475 0.24443,-0.43681 0.48938,-0.48834 z m 0.26458,0 v 0.0538 c 0.24443,0.0519 0.43616,0.24392 0.48782,0.48834 h 0.0558 c -0.0536,-0.27326 -0.2701,-0.48854 -0.54364,-0.54209 z m -0.13229,0.0527 a 0.09921875,0.09921875 0 0 0 -0.0992,0.0992 0.09921875,0.09921875 0 0 0 0.0987,0.0992 0.19843749,0.19843749 0 0 0 -0.0987,0.0264 0.19843749,0.19843749 0 0 0 -0.0992,0.17208 h 0.39688 a 0.19843749,0.19843749 0 0 0 -0.0992,-0.17208 0.19843749,0.19843749 0 0 0 -0.0992,-0.0264 0.09921875,0.09921875 0 0 0 0.0992,-0.0992 0.09921875,0.09921875 0 0 0 -0.0992,-0.0992 z m -0.42323,0.35709 a 0.09921875,0.09921875 0 0 0 -0.0992,0.0992 0.09921875,0.09921875 0 0 0 0.0992,0.0992 0.09921875,0.09921875 0 0 0 0.0992,-0.0992 0.09921875,0.09921875 0 0 0 -0.0992,-0.0992 z m 0,0.19843 a 0.19843749,0.19843749 0 0 0 -0.0992,0.0264 0.19843749,0.19843749 0 0 0 -0.0992,0.17208 h 0.39688 a 0.19843749,0.19843749 0 0 0 -0.0992,-0.17208 0.19843749,0.19843749 0 0 0 -0.0992,-0.0264 z m -0.19844,0.19844 h -0.0537 c 0.0535,0.2735 0.26942,0.4889 0.54312,0.54209 v -0.0538 c -0.24495,-0.0515 -0.43755,-0.2436 -0.48938,-0.48834 z m 1.04335,-0.39687 a 0.09921875,0.09921875 0 0 0 -0.0992,0.0992 0.09921875,0.09921875 0 0 0 0.0992,0.0992 0.09921875,0.09921875 0 0 0 0.0992,-0.0992 0.09921875,0.09921875 0 0 0 -0.0992,-0.0992 z m 0,0.19843 a 0.19843749,0.19843749 0 0 0 -0.0992,0.0264 0.19843749,0.19843749 0 0 0 -0.0992,0.17208 h 0.39687 a 0.19843749,0.19843749 0 0 0 -0.0992,-0.17208 0.19843749,0.19843749 0 0 0 -0.0992,-0.0264 z m 0.19843,0.19844 c -0.0517,0.24442 -0.24339,0.43647 -0.48782,0.48834 v 0.0538 c 0.27354,-0.0536 0.49,-0.26883 0.54364,-0.54209 z m -0.62011,0.0661 a 0.09921875,0.09921875 0 0 0 -0.0992,0.0992 0.09921875,0.09921875 0 0 0 0.0987,0.0992 0.19843749,0.19843749 0 0 0 -0.0987,0.0264 0.19843749,0.19843749 0 0 0 -0.0992,0.17208 h 0.39688 a 0.19843749,0.19843749 0 0 0 -0.0992,-0.17208 0.19843749,0.19843749 0 0 0 -0.0992,-0.0264 0.09921875,0.09921875 0 0 0 0.0992,-0.0992 0.09921875,0.09921875 0 0 0 -0.0992,-0.0992 z" />
    <circle
       style="fill:#1a1a1a;fill-rule:evenodd;stroke-width:0.529167;stroke-linecap:round;stroke-linejoin:round;stroke-miterlimit:7.3;stroke-opacity:0.992157;paint-order:stroke fill markers"
       id="circle89"
       cx="404.15103"
       cy="172.64061"
       r="1.190625" />
    <circle
       style="fill:#f9f9f9;fill-rule:evenodd;stroke-width:0.529167;stroke-linecap:round;stroke-linejoin:round;stroke-miterlimit:7.3;stroke-opacity:0.992157;paint-order:stroke fill markers"
       id="circle90"
       cx="404.15103"
       cy="172.64061"
       r="0.13228457" />
    <circle
       style="fill:#f9f9f9;fill-rule:evenodd;stroke-width:0.529167;stroke-linecap:round;stroke-linejoin:round;stroke-miterlimit:7.3;stroke-opacity:0.992157;paint-order:stroke fill markers"
       id="circle91"
       cx="404.68018"
       cy="172.64061"
       r="0.13228457" />
    <circle
       style="fill:#f9f9f9;fill-rule:evenodd;stroke-width:0.529167;stroke-linecap:round;stroke-linejoin:round;stroke-miterlimit:7.3;stroke-opacity:0.992157;paint-order:stroke fill markers"
       id="circle92"
       cx="404.68018"
       cy="172.11143"
       r="0.13228457" />
    <circle
       style="fill:#f9f9f9;fill-rule:evenodd;stroke-width:0.529167;stroke-linecap:round;stroke-linejoin:round;stroke-miterlimit:7.3;stroke-opacity:0.992157;paint-order:stroke fill markers"
       id="circle93"
       cx="404.68018"
       cy="173.16978"
       r="0.13228457" />
    <circle
       style="fill:#f9f9f9;fill-rule:evenodd;stroke-width:0.529167;stroke-linecap:round;stroke-linejoin:round;stroke-miterlimit:7.3;stroke-opacity:0.992157;paint-order:stroke fill markers"
       id="circle94"
       cx="403.62186"
       cy="172.64061"
       r="0.13228457" />
    <circle
       style="fill:#f9f9f9;fill-rule:evenodd;stroke-width:0.529167;stroke-linecap:round;stroke-linejoin:round;stroke-miterlimit:7.3;stroke-opacity:0.992157;paint-order:stroke fill markers"
       id="circle95"
       cx="403.62186"
       cy="172.11143"
       r="0.13228457" />
    <circle
       style="fill:#f9f9f9;fill-rule:evenodd;stroke-width:0.529167;stroke-linecap:round;stroke-linejoin:round;stroke-miterlimit:7.3;stroke-opacity:0.992157;paint-order:stroke fill markers"
       id="circle96"
       cx="403.62186"
       cy="173.16978"
       r="0.13228457" />
    <path
       style="fill:#f9f9f9;fill-rule:evenodd;stroke:#ffffff;stroke-width:0.0529167;stroke-linecap:square;stroke-linejoin:miter;stroke-miterlimit:7.3;stroke-dasharray:0.0529167, 0.105833;stroke-dashoffset:0;stroke-opacity:0.992157;paint-order:stroke fill markers"
       d="M 404.25686,172.64061 H 404.786"
       id="path96" />
    <path
       style="fill:#f9f9f9;fill-rule:evenodd;stroke:#ffffff;stroke-width:0.0529167;stroke-linecap:square;stroke-linejoin:miter;stroke-miterlimit:7.3;stroke-dasharray:0.0529167, 0.105833;stroke-dashoffset:0;stroke-opacity:0.992157;paint-order:stroke fill markers"
       d="m 403.51603,172.64061 h 0.52914"
       id="path97" />
    <path
       style="fill:none;fill-rule:evenodd;stroke:#ffffff;stroke-width:0.0529167;stroke-linecap:square;stroke-linejoin:miter;stroke-miterlimit:7.3;stroke-dasharray:0.0529167, 0.105833;stroke-dashoffset:0;stroke-opacity:0.992157;paint-order:stroke fill markers"
       d="m 404.68018,172.11143 -0.26456,10e-6 v 1.05835 h 0.26456"
       id="path100" />
    <path
       style="fill:none;fill-rule:evenodd;stroke:#ffffff;stroke-width:0.0529167;stroke-linecap:square;stroke-linejoin:miter;stroke-miterlimit:7.3;stroke-dasharray:0.0529167, 0.105833;stroke-dashoffset:0;stroke-opacity:0.992157;paint-order:stroke fill markers"
       d="m 403.62184,172.11143 0.26464,10e-6 v 1.05835 l -0.26464,-1e-5"
       id="path101" />
    <rect
       style="fill:#f9f9f9;fill-rule:evenodd;stroke:none;stroke-width:0.0529167;stroke-linecap:square;stroke-linejoin:miter;stroke-miterlimit:7.3;stroke-dasharray:0.0529167, 0.105833;stroke-dashoffset:0;stroke-opacity:0.992157;paint-order:stroke fill markers"
       id="rect102"
       width="0.26456913"
       height="0.26458332"
       x="404.01874"
       y="172.50832" />
    <rect
       style="fill:#f9f9f9;fill-rule:evenodd;stroke:none;stroke-width:0.0529167;stroke-linecap:square;stroke-linejoin:miter;stroke-miterlimit:7.3;stroke-dasharray:0.0529167, 0.105833;stroke-dashoffset:0;stroke-opacity:0.992157;paint-order:stroke fill markers"
       id="rect103"
       width="0.26456913"
       height="0.26458332"
       x="404.54788"
       y="171.97914" />
    <rect
       style="fill:#f9f9f9;fill-rule:evenodd;stroke:none;stroke-width:0.0529167;stroke-linecap:square;stroke-linejoin:miter;stroke-miterlimit:7.3;stroke-dasharray:0.0529167, 0.105833;stroke-dashoffset:0;stroke-opacity:0.992157;paint-order:stroke fill markers"
       id="rect104"
       width="0.26456913"
       height="0.26458332"
       x="404.54788"
       y="172.50832" />
    <rect
       style="fill:#f9f9f9;fill-rule:evenodd;stroke:none;stroke-width:0.0529167;stroke-linecap:square;stroke-linejoin:miter;stroke-miterlimit:7.3;stroke-dasharray:0.0529167, 0.105833;stroke-dashoffset:0;stroke-opacity:0.992157;paint-order:stroke fill markers"
       id="rect106"
       width="0.26456913"
       height="0.26458332"
       x="404.54788"
       y="173.03749" />
    <rect
       style="fill:#f9f9f9;fill-rule:evenodd;stroke:none;stroke-width:0.0529167;stroke-linecap:square;stroke-linejoin:miter;stroke-miterlimit:7.3;stroke-dasharray:0.0529167, 0.105833;stroke-dashoffset:0;stroke-opacity:0.992157;paint-order:stroke fill markers"
       id="rect107"
       width="0.26456913"
       height="0.26458332"
       x="403.48956"
       y="171.97914" />
    <rect
       style="fill:#f9f9f9;fill-rule:evenodd;stroke:none;stroke-width:0.0529167;stroke-linecap:square;stroke-linejoin:miter;stroke-miterlimit:7.3;stroke-dasharray:0.0529167, 0.105833;stroke-dashoffset:0;stroke-opacity:0.992157;paint-order:stroke fill markers"
       id="rect108"
       width="0.26456913"
       height="0.26458332"
       x="403.48956"
       y="172.50832" />
    <rect
       style="fill:#f9f9f9;fill-rule:evenodd;stroke:none;stroke-width:0.0529167;stroke-linecap:square;stroke-linejoin:miter;stroke-miterlimit:7.3;stroke-dasharray:0.0529167, 0.105833;stroke-dashoffset:0;stroke-opacity:0.992157;paint-order:stroke fill markers"
       id="rect109"
       width="0.26456913"
       height="0.26458332"
       x="403.48956"
       y="173.03749" />
    <g
       id="g5"
       transform="matrix(55.555557,0,0,55.555557,-20910.039,-8564.779)"
       style="stroke-width:0.018">
      <circle
         style="fill:#1a1a1a;fill-rule:evenodd;stroke-width:0.00952501;stroke-linecap:round;stroke-linejoin:round;stroke-miterlimit:7.3;stroke-opacity:0.992157;paint-order:stroke fill markers"
         id="circle5"
         cx="384.30728"
         cy="158.08853"
         r="1.190625" />
      <path
         id="path5"
         style="color:#000000;fill:#f9f9f9;fill-opacity:0.992157;fill-rule:evenodd;stroke-width:0.018;stroke-linecap:round;stroke-linejoin:round;stroke-miterlimit:7.3;-inkscape-stroke:none;paint-order:stroke fill markers"
         d="m 383.84375,157.40021 c -0.12389,0 -0.22479,0.1009 -0.22479,0.22479 0,0.0637 0.027,0.12135 0.0698,0.16227 -0.0444,0.0909 -0.0698,0.19277 -0.0698,0.30075 0,0.10837 0.0256,0.21089 0.0703,0.30231 -0.043,0.0409 -0.0703,0.0983 -0.0703,0.16226 0,0.1239 0.1009,0.2248 0.22479,0.2248 0.0638,0 0.12135,-0.027 0.16226,-0.0698 0.0908,0.0446 0.19293,0.0698 0.30076,0.0698 0.10825,0 0.21046,-0.0259 0.30179,-0.0708 0.041,0.0433 0.0986,0.0708 0.16278,0.0708 0.1239,0 0.22479,-0.1009 0.22479,-0.2248 0,-0.0641 -0.027,-0.12182 -0.0703,-0.16278 0.0448,-0.0913 0.0703,-0.19362 0.0703,-0.30179 0,-0.10766 -0.0253,-0.20951 -0.0698,-0.30024 0.043,-0.0409 0.0698,-0.0988 0.0698,-0.16278 0,-0.12389 -0.10089,-0.22479 -0.22479,-0.22479 -0.064,0 -0.12133,0.0273 -0.16226,0.0703 -0.0914,-0.0447 -0.19394,-0.0703 -0.30231,-0.0703 -0.10788,0 -0.2099,0.0254 -0.30076,0.0698 -0.0409,-0.0428 -0.0985,-0.0698 -0.16226,-0.0698 z m 0,0.0527 c 0.0953,0 0.17208,0.0768 0.17208,0.17208 0,0.0953 -0.0768,0.17209 -0.17208,0.17209 -0.0953,0 -0.17207,-0.0768 -0.17208,-0.17209 0,-0.0953 0.0768,-0.17208 0.17208,-0.17208 z m 0.46302,0 c 0.0966,0 0.18786,0.022 0.26975,0.0605 -0.0189,0.0329 -0.0294,0.071 -0.0294,0.11162 0,0.12389 0.10038,0.22479 0.22427,0.22479 0.0403,0 0.0784,-0.0108 0.11111,-0.0295 0.0378,0.0813 0.0589,0.17202 0.0589,0.26768 0,0.0962 -0.0217,0.18708 -0.0599,0.26872 -0.0325,-0.0183 -0.0702,-0.0284 -0.11007,-0.0284 -0.12389,0 -0.22426,0.10038 -0.22427,0.22427 0,0.0399 0.0101,0.0776 0.0284,0.11008 -0.0817,0.0382 -0.17249,0.0599 -0.26872,0.0599 -0.0957,0 -0.18638,-0.0211 -0.26768,-0.0589 0.0187,-0.0327 0.0294,-0.0708 0.0294,-0.11111 0,-0.12389 -0.1009,-0.22427 -0.22479,-0.22427 -0.0406,0 -0.0787,0.0105 -0.11162,0.0294 -0.0385,-0.0819 -0.0605,-0.17315 -0.0605,-0.26975 0,-0.0961 0.0218,-0.18715 0.0599,-0.26871 0.0331,0.0192 0.0712,0.0305 0.11214,0.0305 0.12389,0 0.22479,-0.1009 0.22479,-0.22479 0,-0.0411 -0.0112,-0.0795 -0.0305,-0.11265 0.0815,-0.0381 0.17267,-0.0594 0.26872,-0.0594 z m 0.46457,0 c 0.0953,0 0.17208,0.0768 0.17208,0.17208 0,0.0953 -0.0768,0.17209 -0.17208,0.17209 -0.0953,0 -0.17156,-0.0768 -0.17156,-0.17209 0,-0.0953 0.0763,-0.17208 0.17156,-0.17208 z m -0.93637,0.92811 c 0.003,-1.5e-4 0.006,0 0.009,0 0.0953,0 0.17208,0.0763 0.17208,0.17156 0,0.0953 -0.0768,0.17209 -0.17208,0.17209 -0.0953,0 -0.17207,-0.0768 -0.17208,-0.17209 0,-0.0923 0.0722,-0.16698 0.1633,-0.17156 z m 0.92759,0 c 0.003,-1.5e-4 0.006,0 0.009,0 0.0953,0 0.17208,0.0763 0.17208,0.17156 0,0.0953 -0.0768,0.17209 -0.17208,0.17209 -0.0953,0 -0.17156,-0.0768 -0.17156,-0.17209 0,-0.0923 0.0717,-0.16698 0.16278,-0.17156 z" />
    </g>
  </g>
</svg>
